  0
SECTION
  2
HEADER
  9
$ACADVER
  1
AC1014
  9
$ACADMAINTVER
 70
     9
  9
$DWGCODEPAGE
  3
ANSI_1252
  9
$INSBASE
 10
0.0
 20
0.0
 30
0.0
  9
$EXTMIN
 10
1.000000000000000E+20
 20
1.000000000000000E+20
 30
1.000000000000000E+20
  9
$EXTMAX
 10
-1.000000000000000E+20
 20
-1.000000000000000E+20
 30
-1.000000000000000E+20
  9
$LIMMIN
 10
0.0
 20
0.0
  9
$LIMMAX
 10
12.0
 20
9.0
  9
$ORTHOMODE
 70
     0
  9
$REGENMODE
 70
     1
  9
$FILLMODE
 70
     1
  9
$QTEXTMODE
 70
     0
  9
$MIRRTEXT
 70
     1
  9
$DRAGMODE
 70
     2
  9
$LTSCALE
 40
100.0
  9
$OSMODE
 70
    37
  9
$ATTMODE
 70
     1
  9
$TEXTSIZE
 40
0.2
  9
$TRACEWID
 40
0.05
  9
$TEXTSTYLE
  7
STANDARD
  9
$CLAYER
  8
0
  9
$CELTYPE
  6
BYLAYER
  9
$CECOLOR
 62
   256
  9
$CELTSCALE
 40
1.0
  9
$DELOBJ
 70
     1
  9
$DISPSILH
 70
     0
  9
$DIMSCALE
 40
1.0
  9
$DIMASZ
 40
0.18
  9
$DIMEXO
 40
0.0625
  9
$DIMDLI
 40
0.38
  9
$DIMRND
 40
0.0
  9
$DIMDLE
 40
0.0
  9
$DIMEXE
 40
0.18
  9
$DIMTP
 40
0.0
  9
$DIMTM
 40
0.0
  9
$DIMTXT
 40
0.18
  9
$DIMCEN
 40
0.09
  9
$DIMTSZ
 40
0.0
  9
$DIMTOL
 70
     0
  9
$DIMLIM
 70
     0
  9
$DIMTIH
 70
     1
  9
$DIMTOH
 70
     1
  9
$DIMSE1
 70
     0
  9
$DIMSE2
 70
     0
  9
$DIMTAD
 70
     0
  9
$DIMZIN
 70
     0
  9
$DIMBLK
  1

  9
$DIMASO
 70
     1
  9
$DIMSHO
 70
     1
  9
$DIMPOST
  1

  9
$DIMAPOST
  1

  9
$DIMALT
 70
     0
  9
$DIMALTD
 70
     2
  9
$DIMALTF
 40
25.4
  9
$DIMLFAC
 40
1.0
  9
$DIMTOFL
 70
     0
  9
$DIMTVP
 40
0.0
  9
$DIMTIX
 70
     0
  9
$DIMSOXD
 70
     0
  9
$DIMSAH
 70
     0
  9
$DIMBLK1
  1

  9
$DIMBLK2
  1

  9
$DIMSTYLE
  2
STANDARD_ACAD
  9
$DIMCLRD
 70
     0
  9
$DIMCLRE
 70
     0
  9
$DIMCLRT
 70
     0
  9
$DIMTFAC
 40
1.0
  9
$DIMGAP
 40
0.09
  9
$DIMJUST
 70
     0
  9
$DIMSD1
 70
     0
  9
$DIMSD2
 70
     0
  9
$DIMTOLJ
 70
     1
  9
$DIMTZIN
 70
     0
  9
$DIMALTZ
 70
     0
  9
$DIMALTTZ
 70
     0
  9
$DIMFIT
 70
     5
  9
$DIMUPT
 70
     0
  9
$DIMUNIT
 70
     2
  9
$DIMDEC
 70
     4
  9
$DIMTDEC
 70
     4
  9
$DIMALTU
 70
     2
  9
$DIMALTTD
 70
     2
  9
$DIMTXSTY
  7
STANDARD
  9
$DIMAUNIT
 70
     0
  9
$LUNITS
 70
     2
  9
$LUPREC
 70
     2
  9
$SKETCHINC
 40
0.1
  9
$FILLETRAD
 40
0.5
  9
$AUNITS
 70
     0
  9
$AUPREC
 70
     0
  9
$MENU
  1
.
  9
$ELEVATION
 40
0.0
  9
$PELEVATION
 40
0.0
  9
$THICKNESS
 40
0.0
  9
$LIMCHECK
 70
     0
  9
$CHAMFERA
 40
0.0
  9
$CHAMFERB
 40
0.0
  9
$CHAMFERC
 40
0.0
  9
$CHAMFERD
 40
0.0
  9
$SKPOLY
 70
     0
  9
$TDCREATE
 40
2458408.884478739
  9
$TDUPDATE
 40
2458408.88447875
  9
$TDINDWG
 40
0.0000000116
  9
$TDUSRTIMER
 40
0.0000000116
  9
$USRTIMER
 70
     1
  9
$ANGBASE
 50
0.0
  9
$ANGDIR
 70
     0
  9
$PDMODE
 70
     0
  9
$PDSIZE
 40
0.0
  9
$PLINEWID
 40
0.0
  9
$COORDS
 70
     1
  9
$SPLFRAME
 70
     0
  9
$SPLINETYPE
 70
     6
  9
$SPLINESEGS
 70
     8
  9
$ATTDIA
 70
     0
  9
$ATTREQ
 70
     1
  9
$HANDLING
 70
     1
  9
$HANDSEED
  5
191
  9
$SURFTAB1
 70
     6
  9
$SURFTAB2
 70
     6
  9
$SURFTYPE
 70
     6
  9
$SURFU
 70
     6
  9
$SURFV
 70
     6
  9
$UCSNAME
  2

  9
$UCSORG
 10
0.0
 20
0.0
 30
0.0
  9
$UCSXDIR
 10
1.0
 20
0.0
 30
0.0
  9
$UCSYDIR
 10
0.0
 20
1.0
 30
0.0
  9
$PUCSNAME
  2

  9
$PUCSORG
 10
0.0
 20
0.0
 30
0.0
  9
$PUCSXDIR
 10
1.0
 20
0.0
 30
0.0
  9
$PUCSYDIR
 10
0.0
 20
1.0
 30
0.0
  9
$USERI1
 70
     0
  9
$USERI2
 70
     0
  9
$USERI3
 70
     0
  9
$USERI4
 70
     0
  9
$USERI5
 70
     0
  9
$USERR1
 40
0.0
  9
$USERR2
 40
0.0
  9
$USERR3
 40
0.0
  9
$USERR4
 40
0.0
  9
$USERR5
 40
0.0
  9
$WORLDVIEW
 70
     1
  9
$SHADEDGE
 70
     3
  9
$SHADEDIF
 70
    70
  9
$TILEMODE
 70
     1
  9
$MAXACTVP
 70
    64
  9
$PINSBASE
 10
0.0
 20
0.0
 30
0.0
  9
$PLIMCHECK
 70
     0
  9
$PEXTMIN
 10
1.000000000000000E+20
 20
1.000000000000000E+20
 30
1.000000000000000E+20
  9
$PEXTMAX
 10
-1.000000000000000E+20
 20
-1.000000000000000E+20
 30
-1.000000000000000E+20
  9
$PLIMMIN
 10
0.0
 20
0.0
  9
$PLIMMAX
 10
12.0
 20
9.0
  9
$UNITMODE
 70
     0
  9
$VISRETAIN
 70
     1
  9
$PLINEGEN
 70
     0
  9
$PSLTSCALE
 70
     1
  9
$TREEDEPTH
 70
  3020
  9
$PICKSTYLE
 70
     1
  9
$CMLSTYLE
  2
STANDARD
  9
$CMLJUST
 70
     0
  9
$CMLSCALE
 40
1.0
  9
$PROXYGRAPHICS
 70
     1
  9
$MEASUREMENT
 70
     0
  0
ENDSEC
  0
SECTION
  2
CLASSES
  0
CLASS
  1
ACDBDICTIONARYWDFLT
  2
AcDbDictionaryWithDefault
  3
ObjectDBX Classes
 90
        0
280
     0
281
     0
  0
CLASS
  1
VISUALSTYLE
  2
AcDbVisualStyle
  3
ObjectDBX Classes
 90
     4095
280
     0
281
     0
  0
CLASS
  1
MATERIAL
  2
AcDbMaterial
  3
ObjectDBX Classes
 90
     1153
280
     0
281
     0
  0
CLASS
  1
SCALE
  2
AcDbScale
  3
ObjectDBX Classes
 90
     1153
280
     0
281
     0
  0
CLASS
  1
TABLESTYLE
  2
AcDbTableStyle
  3
ObjectDBX Classes
 90
     4095
280
     0
281
     0
  0
CLASS
  1
MLEADERSTYLE
  2
AcDbMLeaderStyle
  3
ACDB_MLEADERSTYLE_CLASS
 90
     4095
280
     0
281
     0
  0
CLASS
  1
SUN
  2
AcDbSun
  3
SCENEOE
 90
     1153
280
     0
281
     0
  0
CLASS
  1
DICTIONARYVAR
  2
AcDbDictionaryVar
  3
ObjectDBX Classes
 90
        0
280
     0
281
     0
  0
CLASS
  1
XRECORD
  2
AcDbXrecord
  3
ObjectDBX Classes
 90
        0
280
     0
281
     0
  0
CLASS
  1
LWPOLYLINE
  2
AcDbPolyline
  3
ObjectDBX Classes
 90
        0
280
     0
281
     1
  0
CLASS
  1
HATCH
  2
AcDbHatch
  3
ObjectDBX Classes
 90
        0
280
     0
281
     1
  0
CLASS
  1
ACDBPLACEHOLDER
  2
AcDbPlaceHolder
  3
ObjectDBX Classes
 90
        0
280
     0
281
     0
  0
CLASS
  1
LAYOUT
  2
AcDbLayout
  3
ObjectDBX Classes
 90
        0
280
     0
281
     0
  0
ENDSEC
  0
SECTION
  2
TABLES
  0
TABLE
  2
VPORT
  5
8
102
{ACAD_XDICTIONARY
360
186
102
}
330
0
100
AcDbSymbolTable
 70
     1
  0
VPORT
  5
29
330
8
100
AcDbSymbolTableRecord
100
AcDbViewportTableRecord
  2
*ACTIVE
 70
     0
 10
0.0
 20
0.0
 11
1.0
 21
1.0
 12
10.42990654205607
 22
4.5
 13
0.0
 23
0.0
 14
0.5
 24
0.5
 15
0.5
 25
0.5
 16
0.0
 26
0.0
 36
1.0
 17
0.0
 27
0.0
 37
0.0
 40
9.0
 41
1.972972972850329
 42
50.0
 43
0.0
 44
0.0
 50
0.0
 51
0.0
 71
     0
 72
   100
 73
     1
 74
     3
 75
     0
 76
     0
 77
     0
 78
     0
  0
ENDTAB
  0
TABLE
  2
LTYPE
  5
5
330
0
100
AcDbSymbolTable
 70
     1
  0
LTYPE
  5
14
330
5
100
AcDbSymbolTableRecord
100
AcDbLinetypeTableRecord
  2
BYBLOCK
 70
     0
  3

 72
    65
 73
     0
 40
0.0
  0
LTYPE
  5
15
330
5
100
AcDbSymbolTableRecord
100
AcDbLinetypeTableRecord
  2
BYLAYER
 70
     0
  3

 72
    65
 73
     0
 40
0.0
  0
LTYPE
  5
16
330
5
100
AcDbSymbolTableRecord
100
AcDbLinetypeTableRecord
  2
CONTINUOUS
 70
     0
  3
Solid line
 72
    65
 73
     0
 40
0.0
  0
ENDTAB
  0
TABLE
  2
LAYER
  5
2
330
0
100
AcDbSymbolTable
 70
     1
  0
LAYER
  5
10
330
2
100
AcDbSymbolTableRecord
100
AcDbLayerTableRecord
  2
0
 70
     0
 62
    18
  6
CONTINUOUS
  0
ENDTAB
  0
TABLE
  2
STYLE
  5
3
330
0
100
AcDbSymbolTable
 70
     1
  0
STYLE
  5
11
330
3
100
AcDbSymbolTableRecord
100
AcDbTextStyleTableRecord
  2
STANDARD
 70
     0
 40
0.0
 41
1.0
 50
0.0
 71
     0
 42
0.2
  3
txt
  4

  0
ENDTAB
  0
TABLE
  2
VIEW
  5
6
330
0
100
AcDbSymbolTable
 70
     0
  0
ENDTAB
  0
TABLE
  2
UCS
  5
7
330
0
100
AcDbSymbolTable
 70
     0
  0
ENDTAB
  0
TABLE
  2
APPID
  5
9
330
0
100
AcDbSymbolTable
 70
     2
  0
APPID
  5
12
330
9
100
AcDbSymbolTableRecord
100
AcDbRegAppTableRecord
  2
ACAD
 70
     0
  0
APPID
  5
190
330
9
100
AcDbSymbolTableRecord
100
AcDbRegAppTableRecord
  2
ACAD_MLEADERVER
 70
     0
  0
ENDTAB
  0
TABLE
  2
DIMSTYLE
  5
A
330
0
100
AcDbSymbolTable
 70
     1
  0
DIMSTYLE
105
27
330
A
100
AcDbSymbolTableRecord
100
AcDbDimStyleTableRecord
  2
STANDARD_ACAD
 70
     0
  3

  4

  5

  6

  7

 40
1.0
 41
0.18
 42
0.0625
 43
0.38
 44
0.18
 45
0.0
 46
0.0
 47
0.0
 48
0.0
140
0.18
141
0.09
142
0.0
143
25.4
144
1.0
145
0.0
146
1.0
147
0.09
 71
     0
 72
     0
 73
     1
 74
     1
 75
     0
 76
     0
 77
     0
 78
     0
170
     0
171
     2
172
     0
173
     0
174
     0
175
     0
176
     0
177
     0
178
     0
270
     2
271
     4
272
     4
273
     2
274
     2
340
11
275
     0
280
     0
281
     0
282
     0
283
     1
284
     0
285
     0
286
     0
287
     3
288
     0
  0
ENDTAB
  0
TABLE
  2
BLOCK_RECORD
  5
1
330
0
100
AcDbSymbolTable
 70
     0
  0
BLOCK_RECORD
  5
1F
330
1
100
AcDbSymbolTableRecord
100
AcDbBlockTableRecord
  2
*MODEL_SPACE
  0
BLOCK_RECORD
  5
1B
330
1
100
AcDbSymbolTableRecord
100
AcDbBlockTableRecord
  2
*PAPER_SPACE
  0
ENDTAB
  0
ENDSEC
  0
SECTION
  2
BLOCKS
  0
BLOCK
  5
20
330
1F
100
AcDbEntity
  8
0
100
AcDbBlockBegin
  2
*MODEL_SPACE
 70
     0
 10
0.0
 20
0.0
 30
0.0
  3
*MODEL_SPACE
  1

  0
ENDBLK
  5
21
330
1F
100
AcDbEntity
  8
0
100
AcDbBlockEnd
  0
BLOCK
  5
1C
330
1B
100
AcDbEntity
 67
     1
  8
0
100
AcDbBlockBegin
  2
*PAPER_SPACE
 70
     0
 10
0.0
 20
0.0
 30
0.0
  3
*PAPER_SPACE
  1

  0
ENDBLK
  5
1D
330
1B
100
AcDbEntity
 67
     1
  8
0
100
AcDbBlockEnd
  0
ENDSEC
  0
SECTION
  2
ENTITIES
  0
POLYLINE
  5
6E
330
1F
100
AcDbEntity
  8
0
100
AcDb3dPolyline
 66
     1
 10
0.0
 20
0.0
 30
0.0
 70
     8
  0
VERTEX
  5
6F
330
6E
100
AcDbEntity
  8
0
100
AcDbVertex
100
AcDb3dPolylineVertex
 10
-200.8471653888736
 20
62.55968521355622
 30
-15.4237159062402
 70
    32
  0
VERTEX
  5
70
330
6E
100
AcDbEntity
  8
0
100
AcDbVertex
100
AcDb3dPolylineVertex
 10
-134.8882368245043
 20
103.4227975943763
 30
-105.7637418023174
 70
    32
  0
VERTEX
  5
71
330
6E
100
AcDbEntity
  8
0
100
AcDbVertex
100
AcDb3dPolylineVertex
 10
-226.1214420299064
 20
176.0787438681018
 30
-97.50077459243374
 70
    32
  0
VERTEX
  5
72
330
6E
100
AcDbEntity
  8
0
100
AcDbVertex
100
AcDb3dPolylineVertex
 10
-156.7926099133994
 20
219.4555425442962
 30
-223.1987267271846
 70
    32
  0
VERTEX
  5
73
330
6E
100
AcDbEntity
  8
0
100
AcDbVertex
100
AcDb3dPolylineVertex
 10
-244.6559115666637
 20
294.2189779534975
 30
-147.515635150204
 70
    32
  0
VERTEX
  5
74
330
6E
100
AcDbEntity
  8
0
100
AcDbVertex
100
AcDb3dPolylineVertex
 10
-171.957175898019
 20
339.2970686052693
 30
-281.7162533541993
 70
    32
  0
VERTEX
  5
75
330
6E
100
AcDbEntity
  8
0
100
AcDbVertex
100
AcDb3dPolylineVertex
 10
-256.4505739991456
 20
415.3555988301492
 30
-170.6056136808348
 70
    32
  0
VERTEX
  5
76
330
6E
100
AcDbEntity
  8
0
100
AcDbVertex
100
AcDb3dPolylineVertex
 10
-180.3819347783632
 20
461.322587137701
 30
-293.2417701324251
 70
    32
  0
VERTEX
  5
77
330
6E
100
AcDbEntity
  8
0
100
AcDbVertex
100
AcDb3dPolylineVertex
 10
-261.5054293273522
 20
537.8638178584622
 30
-171.9080262856093
 70
    32
  0
VERTEX
  5
78
330
6E
100
AcDbEntity
  8
0
100
AcDbVertex
100
AcDb3dPolylineVertex
 10
-182.066886554432
 20
583.9073095019967
 30
-269.7007255109249
 70
    32
  0
VERTEX
  5
79
330
6E
100
AcDbEntity
  8
0
100
AcDbVertex
100
AcDb3dPolylineVertex
 10
-259.8204775512834
 20
660.1188463988425
 30
-156.5601890658112
 70
    32
  0
VERTEX
  5
7A
330
6E
100
AcDbEntity
  8
0
100
AcDbVertex
100
AcDb3dPolylineVertex
 10
-177.0120312262254
 20
705.4264470585624
 30
-223.0185679387627
 70
    32
  0
VERTEX
  5
7B
330
6E
100
AcDbEntity
  8
0
100
AcDbVertex
100
AcDb3dPolylineVertex
 10
-251.395718670939
 20
780.4958958116949
 30
-129.699418122724
 70
    32
  0
VERTEX
  5
7C
330
6E
100
AcDbEntity
  8
0
100
AcDbVertex
100
AcDb3dPolylineVertex
 10
-165.2173687937435
 20
824.255211167804
 30
-165.1207458650017
 70
    32
  0
VERTEX
  5
7D
330
6E
100
AcDbEntity
  8
0
100
AcDbVertex
100
AcDb3dPolylineVertex
 10
-236.2311526863195
 20
897.3701774574263
 30
-96.4630295576313
 70
    32
  0
VERTEX
  5
7E
330
6E
100
AcDbEntity
  8
0
100
AcDbVertex
100
AcDb3dPolylineVertex
 10
-146.6828992569862
 20
938.7688131901257
 30
-107.9327077387054
 70
    32
  0
VERTEX
  5
7F
330
6E
100
AcDbEntity
  8
0
100
AcDbVertex
100
AcDb3dPolylineVertex
 10
-214.3267795974244
 20
1009.11690269644
 30
-61.98833947181643
 70
    32
  0
VERTEX
  5
80
330
6E
100
AcDbEntity
  8
0
100
AcDbVertex
100
AcDb3dPolylineVertex
 10
-121.4086226159535
 20
1047.342464485934
 30
-63.37990200893734
 70
    32
  0
SEQEND
  5
81
330
6E
100
AcDbEntity
  8
0
  0
POLYLINE
  5
82
330
1F
100
AcDbEntity
  8
0
100
AcDb3dPolyline
 66
     1
 10
0.0
 20
0.0
 30
0.0
 70
     8
  0
VERTEX
  5
83
330
82
100
AcDbEntity
  8
0
100
AcDbVertex
100
AcDb3dPolylineVertex
 10
-39.329465037574
 20
35.5068483644508
 30
-19.45063779235032
 70
    32
  0
VERTEX
  5
84
330
82
100
AcDbEntity
  8
0
100
AcDbVertex
100
AcDb3dPolylineVertex
 10
31.33324908488364
 20
83.13316995754724
 30
-119.4864129372256
 70
    32
  0
VERTEX
  5
85
330
82
100
AcDbEntity
  8
0
100
AcDbVertex
100
AcDb3dPolylineVertex
 10
-64.60374167860672
 20
149.0259070189963
 30
-205.3832134711785
 70
    32
  0
VERTEX
  5
86
330
82
100
AcDbEntity
  8
0
100
AcDbVertex
100
AcDb3dPolylineVertex
 10
9.428875995988639
 20
199.1659149074671
 30
-267.2847316917749
 70
    32
  0
VERTEX
  5
87
330
82
100
AcDbEntity
  8
0
100
AcDbVertex
100
AcDb3dPolylineVertex
 10
-83.13821121536404
 20
267.1661411043921
 30
-310.034128165207
 70
    32
  0
VERTEX
  5
88
330
82
100
AcDbEntity
  8
0
100
AcDbVertex
100
AcDb3dPolylineVertex
 10
-5.735689988630977
 20
319.0074409684401
 30
-338.847607023252
 70
    32
  0
VERTEX
  5
89
330
82
100
AcDbEntity
  8
0
100
AcDbVertex
100
AcDb3dPolylineVertex
 10
-94.93287364784597
 20
388.3027619810437
 30
-348.5991399716622
 70
    32
  0
VERTEX
  5
8A
330
82
100
AcDbEntity
  8
0
100
AcDbVertex
100
AcDb3dPolylineVertex
 10
-14.16044886897519
 20
441.0329595008718
 30
-349.7095877606986
 70
    32
  0
VERTEX
  5
8B
330
82
100
AcDbEntity
  8
0
100
AcDbVertex
100
AcDb3dPolylineVertex
 10
-99.9877289760525
 20
510.8109810093568
 30
-336.2740069877709
 70
    32
  0
VERTEX
  5
8C
330
82
100
AcDbEntity
  8
0
100
AcDbVertex
100
AcDb3dPolylineVertex
 10
-15.84540064504401
 20
563.6176818651677
 30
-315.4052227331568
 70
    32
  0
VERTEX
  5
8D
330
82
100
AcDbEntity
  8
0
100
AcDbVertex
100
AcDb3dPolylineVertex
 10
-98.30277719998364
 20
633.066009549737
 30
-288.2544873107591
 70
    32
  0
VERTEX
  5
8E
330
82
100
AcDbEntity
  8
0
100
AcDbVertex
100
AcDb3dPolylineVertex
 10
-10.79054531683749
 20
685.1368194217334
 30
-251.4690607696683
 70
    32
  0
VERTEX
  5
8F
330
82
100
AcDbEntity
  8
0
100
AcDbVertex
100
AcDb3dPolylineVertex
 10
-89.87801831963935
 20
753.4430589625896
 30
-219.7363390378535
 70
    32
  0
VERTEX
  5
90
330
82
100
AcDbEntity
  8
0
100
AcDbVertex
100
AcDb3dPolylineVertex
 10
1.004117115644469
 20
803.9655835309748
 30
-173.4356506992754
 70
    32
  0
VERTEX
  5
91
330
82
100
AcDbEntity
  8
0
100
AcDbVertex
100
AcDb3dPolylineVertex
 10
-74.71345233501977
 20
870.3173406083208
 30
-145.9153202662806
 70
    32
  0
VERTEX
  5
92
330
82
100
AcDbEntity
  8
0
100
AcDbVertex
100
AcDb3dPolylineVertex
 10
19.53858665240177
 20
918.4791855532967
 30
-96.83954135101965
 70
    32
  0
VERTEX
  5
93
330
82
100
AcDbEntity
  8
0
100
AcDbVertex
100
AcDb3dPolylineVertex
 10
-52.80907924612472
 20
982.0640658473351
 30
-81.98718909326655
 70
    32
  0
VERTEX
  5
94
330
82
100
AcDbEntity
  8
0
100
AcDbVertex
100
AcDb3dPolylineVertex
 10
44.81286329343448
 20
1027.052836849105
 30
-37.21528155394333
 70
    32
  0
SEQEND
  5
95
330
82
100
AcDbEntity
  8
0
  0
POLYLINE
  5
96
330
1F
100
AcDbEntity
  8
0
100
AcDb3dPolyline
 66
     1
 10
0.0
 20
0.0
 30
0.0
 70
     8
  0
VERTEX
  5
97
330
96
100
AcDbEntity
  8
0
100
AcDbVertex
100
AcDb3dPolylineVertex
 10
130.4409183242414
 20
21.98042993989811
 30
-1.352119759975686
 70
    32
  0
VERTEX
  5
98
330
96
100
AcDbEntity
  8
0
100
AcDbVertex
100
AcDb3dPolylineVertex
 10
203.4976417934658
 20
76.36996074527086
 30
-67.61848460131317
 70
    32
  0
VERTEX
  5
99
330
96
100
AcDbEntity
  8
0
100
AcDbVertex
100
AcDb3dPolylineVertex
 10
105.1666416832087
 20
135.4994885944436
 30
-176.108621077489
 70
    32
  0
VERTEX
  5
9A
330
96
100
AcDbEntity
  8
0
100
AcDbVertex
100
AcDb3dPolylineVertex
 10
181.5932687045708
 20
192.4027056951908
 30
-177.6657570970323
 70
    32
  0
VERTEX
  5
9B
330
96
100
AcDbEntity
  8
0
100
AcDbVertex
100
AcDb3dPolylineVertex
 10
86.63217214645135
 20
253.6397226798394
 30
-275.0856849923123
 70
    32
  0
VERTEX
  5
9C
330
96
100
AcDbEntity
  8
0
100
AcDbVertex
100
AcDb3dPolylineVertex
 10
166.4287027199511
 20
312.2442317561637
 30
-233.2465199290922
 70
    32
  0
VERTEX
  5
9D
330
96
100
AcDbEntity
  8
0
100
AcDbVertex
100
AcDb3dPolylineVertex
 10
74.83750971396944
 20
374.776343556491
 30
-311.8114359322253
 70
    32
  0
VERTEX
  5
9E
330
96
100
AcDbEntity
  8
0
100
AcDbVertex
100
AcDb3dPolylineVertex
 10
158.0039438396069
 20
434.2697502885956
 30
-244.1235617742014
 70
    32
  0
VERTEX
  5
9F
330
96
100
AcDbEntity
  8
0
100
AcDbVertex
100
AcDb3dPolylineVertex
 10
69.78265438576291
 20
497.2845625848042
 30
-299.8139983250073
 70
    32
  0
VERTEX
  5
A0
330
96
100
AcDbEntity
  8
0
100
AcDbVertex
100
AcDb3dPolylineVertex
 10
156.318992063538
 20
556.8544726528913
 30
-220.0596713090684
 70
    32
  0
VERTEX
  5
A1
330
96
100
AcDbEntity
  8
0
100
AcDbVertex
100
AcDb3dPolylineVertex
 10
71.46760616183174
 20
619.5395911251844
 30
-252.6214965984378
 70
    32
  0
VERTEX
  5
A2
330
96
100
AcDbEntity
  8
0
100
AcDbVertex
100
AcDb3dPolylineVertex
 10
161.3738473917446
 20
678.3736102094573
 30
-170.8176372104018
 70
    32
  0
VERTEX
  5
A3
330
96
100
AcDbEntity
  8
0
100
AcDbVertex
100
AcDb3dPolylineVertex
 10
79.89236504217602
 20
739.916640538037
 30
-183.7620551802963
 70
    32
  0
VERTEX
  5
A4
330
96
100
AcDbEntity
  8
0
100
AcDbVertex
100
AcDb3dPolylineVertex
 10
173.1685098242266
 20
797.2023743186985
 30
-106.1602481549101
 70
    32
  0
VERTEX
  5
A5
330
96
100
AcDbEntity
  8
0
100
AcDbVertex
100
AcDb3dPolylineVertex
 10
95.05693102679564
 20
856.7909221837682
 30
-106.7637984983624
 70
    32
  0
VERTEX
  5
A6
330
96
100
AcDbEntity
  8
0
100
AcDbVertex
100
AcDb3dPolylineVertex
 10
191.7029793609838
 20
911.7159763410205
 30
-35.8502928193018
 70
    32
  0
VERTEX
  5
A7
330
96
100
AcDbEntity
  8
0
100
AcDbVertex
100
AcDb3dPolylineVertex
 10
116.9613041156907
 20
968.5376474227824
 30
-35.15485098041546
 70
    32
  0
VERTEX
  5
A8
330
96
100
AcDbEntity
  8
0
100
AcDbVertex
100
AcDb3dPolylineVertex
 10
216.9772560020166
 20
1020.289627636829
 30
30.34944011971454
 70
    32
  0
SEQEND
  5
A9
330
96
100
AcDbEntity
  8
0
  0
POLYLINE
  5
AA
330
1F
100
AcDbEntity
  8
0
100
AcDb3dPolyline
 66
     1
 10
0.0
 20
0.0
 30
0.0
 70
     8
  0
VERTEX
  5
AB
330
AA
100
AcDbEntity
  8
0
100
AcDbVertex
100
AcDb3dPolylineVertex
 10
303.8444322739294
 20
21.9804299398981
 30
22.50955021087311
 70
    32
  0
VERTEX
  5
AC
330
AA
100
AcDbEntity
  8
0
100
AcDbVertex
100
AcDb3dPolylineVertex
 10
376.9853888785988
 20
83.13316995754722
 30
6.592589888346573
 70
    32
  0
VERTEX
  5
AD
330
AA
100
AcDbEntity
  8
0
100
AcDbVertex
100
AcDb3dPolylineVertex
 10
278.5701556328967
 20
135.4994885944436
 30
-73.75114363838293
 70
    32
  0
VERTEX
  5
AE
330
AA
100
AcDbEntity
  8
0
100
AcDbVertex
100
AcDb3dPolylineVertex
 10
355.0810157897038
 20
199.1659149074672
 30
-33.77047343607006
 70
    32
  0
VERTEX
  5
AF
330
AA
100
AcDbEntity
  8
0
100
AcDbVertex
100
AcDb3dPolylineVertex
 10
260.0356860961393
 20
253.6397226798393
 30
-132.5676355301504
 70
    32
  0
VERTEX
  5
B0
330
AA
100
AcDbEntity
  8
0
100
AcDbVertex
100
AcDb3dPolylineVertex
 10
339.9164498050841
 20
319.0074409684402
 30
-60.97942029855719
 70
    32
  0
VERTEX
  5
B1
330
AA
100
AcDbEntity
  8
0
100
AcDbVertex
100
AcDb3dPolylineVertex
 10
248.2410236636574
 20
374.776343556491
 30
-158.764770823528
 70
    32
  0
VERTEX
  5
B2
330
AA
100
AcDbEntity
  8
0
100
AcDbVertex
100
AcDb3dPolylineVertex
 10
331.4916909247399
 20
441.0329595008719
 30
-74.33484895733378
 70
    32
  0
VERTEX
  5
B3
330
AA
100
AcDbEntity
  8
0
100
AcDbVertex
100
AcDb3dPolylineVertex
 10
243.1861683354509
 20
497.2845625848042
 30
-157.1673948776144
 70
    32
  0
VERTEX
  5
B4
330
AA
100
AcDbEntity
  8
0
100
AcDbVertex
100
AcDb3dPolylineVertex
 10
329.8067391486711
 20
563.6176818651677
 30
-73.13735767061914
 70
    32
  0
VERTEX
  5
B5
330
AA
100
AcDbEntity
  8
0
100
AcDbVertex
100
AcDb3dPolylineVertex
 10
244.8711201115197
 20
619.5395911251844
 30
-132.6003530515079
 70
    32
  0
VERTEX
  5
B6
330
AA
100
AcDbEntity
  8
0
100
AcDbVertex
100
AcDb3dPolylineVertex
 10
334.8615944768776
 20
685.1368194217334
 30
-56.68754469663239
 70
    32
  0
VERTEX
  5
B7
330
AA
100
AcDbEntity
  8
0
100
AcDbVertex
100
AcDb3dPolylineVertex
 10
253.2958789918639
 20
739.916640538037
 30
-89.88849070430727
 70
    32
  0
VERTEX
  5
B8
330
AA
100
AcDbEntity
  8
0
100
AcDbVertex
100
AcDb3dPolylineVertex
 10
346.6562569093595
 20
803.9655835309749
 30
-24.28600829359267
 70
    32
  0
VERTEX
  5
B9
330
AA
100
AcDbEntity
  8
0
100
AcDbVertex
100
AcDb3dPolylineVertex
 10
268.4604449764836
 20
856.7909221837682
 30
-33.85665319511121
 70
    32
  0
VERTEX
  5
BA
330
AA
100
AcDbEntity
  8
0
100
AcDbVertex
100
AcDb3dPolylineVertex
 10
365.1907264461169
 20
918.4791855532969
 30
24.76665328028092
 70
    32
  0
VERTEX
  5
BB
330
AA
100
AcDbEntity
  8
0
100
AcDbVertex
100
AcDb3dPolylineVertex
 10
290.3648180653785
 20
968.5376474227824
 30
30.67031411698185
 70
    32
  0
VERTEX
  5
BC
330
AA
100
AcDbEntity
  8
0
100
AcDbVertex
100
AcDb3dPolylineVertex
 10
390.4650030871496
 20
1027.052836849105
 30
91.16984176676914
 70
    32
  0
SEQEND
  5
BD
330
AA
100
AcDbEntity
  8
0
  0
POLYLINE
  5
BE
330
1F
100
AcDbEntity
  8
0
100
AcDb3dPolyline
 66
     1
 10
0.0
 20
0.0
 30
0.0
 70
     8
  0
VERTEX
  5
BF
330
BE
100
AcDbEntity
  8
0
100
AcDbVertex
100
AcDb3dPolylineVertex
 10
476.2615243888467
 20
35.50684836445079
 30
35.77208414018546
 70
    32
  0
VERTEX
  5
C0
330
BE
100
AcDbEntity
  8
0
100
AcDbVertex
100
AcDb3dPolylineVertex
 10
547.1769379176397
 20
103.4227975943763
 30
59.89935721468054
 70
    32
  0
VERTEX
  5
C1
330
BE
100
AcDbEntity
  8
0
100
AcDbVertex
100
AcDb3dPolylineVertex
 10
450.987247747814
 20
149.0259070189963
 30
37.61507261912214
 70
    32
  0
VERTEX
  5
C2
330
BE
100
AcDbEntity
  8
0
100
AcDbVertex
100
AcDb3dPolylineVertex
 10
525.2725648287446
 20
219.4555425442962
 30
84.97244879799827
 70
    32
  0
VERTEX
  5
C3
330
BE
100
AcDbEntity
  8
0
100
AcDbVertex
100
AcDb3dPolylineVertex
 10
432.4527782110565
 20
267.166141104392
 30
27.62269032264867
 70
    32
  0
VERTEX
  5
C4
330
BE
100
AcDbEntity
  8
0
100
AcDbVertex
100
AcDb3dPolylineVertex
 10
510.1079988441252
 20
339.2970686052693
 30
81.88726364151596
 70
    32
  0
VERTEX
  5
C5
330
BE
100
AcDbEntity
  8
0
100
AcDbVertex
100
AcDb3dPolylineVertex
 10
420.6581157785747
 20
388.3027619810437
 30
12.01858609342534
 70
    32
  0
VERTEX
  5
C6
330
BE
100
AcDbEntity
  8
0
100
AcDbVertex
100
AcDb3dPolylineVertex
 10
501.6832399637809
 20
461.322587137701
 30
61.80539390550383
 70
    32
  0
VERTEX
  5
C7
330
BE
100
AcDbEntity
  8
0
100
AcDbVertex
100
AcDb3dPolylineVertex
 10
415.6032604503682
 20
510.810981009357
 30
-2.973591225887604
 70
    32
  0
VERTEX
  5
C8
330
BE
100
AcDbEntity
  8
0
100
AcDbVertex
100
AcDb3dPolylineVertex
 10
499.998288187712
 20
583.907309501997
 30
35.88843175023205
 70
    32
  0
VERTEX
  5
C9
330
BE
100
AcDbEntity
  8
0
100
AcDbVertex
100
AcDb3dPolylineVertex
 10
417.288212226437
 20
633.066009549737
 30
-11.13019279262985
 70
    32
  0
VERTEX
  5
CA
330
BE
100
AcDbEntity
  8
0
100
AcDbVertex
100
AcDb3dPolylineVertex
 10
505.0531435159183
 20
705.4264470585628
 30
15.29796933597089
 70
    32
  0
VERTEX
  5
CB
330
BE
100
AcDbEntity
  8
0
100
AcDbVertex
100
AcDb3dPolylineVertex
 10
425.7129711067811
 20
753.4430589625897
 30
-6.227569764141154
 70
    32
  0
VERTEX
  5
CC
330
BE
100
AcDbEntity
  8
0
100
AcDbVertex
100
AcDb3dPolylineVertex
 10
516.8478059484003
 20
824.2552111678041
 30
11.19559882299054
 70
    32
  0
VERTEX
  5
CD
330
BE
100
AcDbEntity
  8
0
100
AcDbVertex
100
AcDb3dPolylineVertex
 10
440.8775370914009
 20
870.3173406083212
 30
17.95792670223883
 70
    32
  0
VERTEX
  5
CE
330
BE
100
AcDbEntity
  8
0
100
AcDbVertex
100
AcDb3dPolylineVertex
 10
535.3822754851576
 20
938.7688131901259
 30
34.74291237156129
 70
    32
  0
VERTEX
  5
CF
330
BE
100
AcDbEntity
  8
0
100
AcDbVertex
100
AcDb3dPolylineVertex
 10
462.7819101802959
 20
982.0640658473349
 30
67.64994544917027
 70
    32
  0
VERTEX
  5
D0
330
BE
100
AcDbEntity
  8
0
100
AcDbVertex
100
AcDb3dPolylineVertex
 10
560.6565521261906
 20
1047.342464485934
 30
97.1015021419533
 70
    32
  0
SEQEND
  5
D1
330
BE
100
AcDbEntity
  8
0
  0
POLYLINE
  5
D2
330
1F
100
AcDbEntity
  8
0
100
AcDb3dPolyline
 66
     1
 10
0.0
 20
0.0
 30
0.0
 70
     8
  0
VERTEX
  5
D3
330
D2
100
AcDbEntity
  8
0
100
AcDbVertex
100
AcDb3dPolylineVertex
 10
643.0726422463501
 20
62.55968521355618
 30
22.07319404795079
 70
    32
  0
VERTEX
  5
D4
330
D2
100
AcDbEntity
  8
0
100
AcDbVertex
100
AcDb3dPolylineVertex
 10
709.4527364879449
 20
137.238843655758
 30
49.05436406061552
 70
    32
  0
VERTEX
  5
D5
330
D2
100
AcDbEntity
  8
0
100
AcDbVertex
100
AcDb3dPolylineVertex
 10
617.7983656053175
 20
176.0787438681018
 30
93.91588146800858
 70
    32
  0
VERTEX
  5
D6
330
D2
100
AcDbEntity
  8
0
100
AcDbVertex
100
AcDb3dPolylineVertex
 10
687.5483633990501
 20
253.2715886056779
 30
99.13433911205924
 70
    32
  0
VERTEX
  5
D7
330
D2
100
AcDbEntity
  8
0
100
AcDbVertex
100
AcDb3dPolylineVertex
 10
599.2638960685601
 20
294.2189779534975
 30
115.5879626674547
 70
    32
  0
VERTEX
  5
D8
330
D2
100
AcDbEntity
  8
0
100
AcDbVertex
100
AcDb3dPolylineVertex
 10
672.3837974144304
 20
373.113114666651
 30
99.2871036642898
 70
    32
  0
VERTEX
  5
D9
330
D2
100
AcDbEntity
  8
0
100
AcDbVertex
100
AcDb3dPolylineVertex
 10
587.4692336360783
 20
415.3555988301492
 30
102.0163655576305
 70
    32
  0
VERTEX
  5
DA
330
D2
100
AcDbEntity
  8
0
100
AcDbVertex
100
AcDb3dPolylineVertex
 10
663.9590385340862
 20
495.1386331990827
 30
66.44601002991084
 70
    32
  0
VERTEX
  5
DB
330
D2
100
AcDbEntity
  8
0
100
AcDbVertex
100
AcDb3dPolylineVertex
 10
582.4143783078717
 20
537.8638178584624
 30
68.12801804987718
 70
    32
  0
VERTEX
  5
DC
330
D2
100
AcDbEntity
  8
0
100
AcDbVertex
100
AcDb3dPolylineVertex
 10
662.274086758017
 20
617.7233555633785
 30
17.54441052152595
 70
    32
  0
VERTEX
  5
DD
330
D2
100
AcDbEntity
  8
0
100
AcDbVertex
100
AcDb3dPolylineVertex
 10
584.0993300839406
 20
660.1188463988425
 30
28.84984805553569
 70
    32
  0
VERTEX
  5
DE
330
D2
100
AcDbEntity
  8
0
100
AcDbVertex
100
AcDb3dPolylineVertex
 10
667.3289420862235
 20
739.2424931199442
 30
-30.48434254826127
 70
    32
  0
VERTEX
  5
DF
330
D2
100
AcDbEntity
  8
0
100
AcDbVertex
100
AcDb3dPolylineVertex
 10
592.5240889642847
 20
780.495895811695
 30
-0.8912165140526421
 70
    32
  0
VERTEX
  5
E0
330
D2
100
AcDbEntity
  8
0
100
AcDbVertex
100
AcDb3dPolylineVertex
 10
679.1236045187056
 20
858.0712572291856
 30
-60.70689686684715
 70
    32
  0
VERTEX
  5
E1
330
D2
100
AcDbEntity
  8
0
100
AcDbVertex
100
AcDb3dPolylineVertex
 10
607.6886549489043
 20
897.3701774574264
 30
-6.168247747546669
 70
    32
  0
VERTEX
  5
E2
330
D2
100
AcDbEntity
  8
0
100
AcDbVertex
100
AcDb3dPolylineVertex
 10
697.6580740554629
 20
972.5848592515074
 30
-56.18990012162799
 70
    32
  0
VERTEX
  5
E3
330
D2
100
AcDbEntity
  8
0
100
AcDbVertex
100
AcDb3dPolylineVertex
 10
629.5930280377992
 20
1009.11690269644
 30
27.94568226639479
 70
    32
  0
VERTEX
  5
E4
330
D2
100
AcDbEntity
  8
0
100
AcDbVertex
100
AcDb3dPolylineVertex
 10
722.9323506964957
 20
1081.158510547316
 30
-0.0000000000001736
 70
    32
  0
SEQEND
  5
E5
330
D2
100
AcDbEntity
  8
0
  0
POLYLINE
  5
E6
330
1F
100
AcDbEntity
  8
0
100
AcDb3dPolyline
 66
     1
 10
0.0
 20
0.0
 30
0.0
 70
     8
  0
VERTEX
  5
E7
330
E6
100
AcDbEntity
  8
0
100
AcDbVertex
100
AcDb3dPolylineVertex
 10
-200.8471653888736
 20
62.55968521355622
 30
-15.4237159062402
 70
    32
  0
VERTEX
  5
E8
330
E6
100
AcDbEntity
  8
0
100
AcDbVertex
100
AcDb3dPolylineVertex
 10
-290.5472635120548
 20
137.2388436557581
 30
16.79698212048469
 70
    32
  0
VERTEX
  5
E9
330
E6
100
AcDbEntity
  8
0
100
AcDbVertex
100
AcDb3dPolylineVertex
 10
-226.1214420299064
 20
176.0787438681018
 30
-97.50077459243374
 70
    32
  0
VERTEX
  5
EA
330
E6
100
AcDbEntity
  8
0
100
AcDbVertex
100
AcDb3dPolylineVertex
 10
-312.4516366009499
 20
253.2715886056781
 30
34.02092828985227
 70
    32
  0
VERTEX
  5
EB
330
E6
100
AcDbEntity
  8
0
100
AcDbVertex
100
AcDb3dPolylineVertex
 10
-244.6559115666637
 20
294.2189779534975
 30
-147.515635150204
 70
    32
  0
VERTEX
  5
EC
330
E6
100
AcDbEntity
  8
0
100
AcDbVertex
100
AcDb3dPolylineVertex
 10
-327.6162025855695
 20
373.113114666651
 30
34.21396930490317
 70
    32
  0
VERTEX
  5
ED
330
E6
100
AcDbEntity
  8
0
100
AcDbVertex
100
AcDb3dPolylineVertex
 10
-256.4505739991456
 20
415.3555988301492
 30
-170.6056136808348
 70
    32
  0
VERTEX
  5
EE
330
E6
100
AcDbEntity
  8
0
100
AcDbVertex
100
AcDb3dPolylineVertex
 10
-336.0409614659138
 20
495.1386331990827
 30
23.13104789502026
 70
    32
  0
VERTEX
  5
EF
330
E6
100
AcDbEntity
  8
0
100
AcDbVertex
100
AcDb3dPolylineVertex
 10
-261.5054293273522
 20
537.8638178584622
 30
-171.9080262856093
 70
    32
  0
VERTEX
  5
F0
330
E6
100
AcDbEntity
  8
0
100
AcDbVertex
100
AcDb3dPolylineVertex
 10
-337.7259132419825
 20
617.7233555633784
 30
6.527106789586426
 70
    32
  0
VERTEX
  5
F1
330
E6
100
AcDbEntity
  8
0
100
AcDbVertex
100
AcDb3dPolylineVertex
 10
-259.8204775512834
 20
660.1188463988425
 30
-156.5601890658112
 70
    32
  0
VERTEX
  5
F2
330
E6
100
AcDbEntity
  8
0
100
AcDbVertex
100
AcDb3dPolylineVertex
 10
-332.6710579137759
 20
739.2424931199441
 30
-9.84291128201545
 70
    32
  0
VERTEX
  5
F3
330
E6
100
AcDbEntity
  8
0
100
AcDbVertex
100
AcDb3dPolylineVertex
 10
-251.395718670939
 20
780.4958958116949
 30
-129.699418122724
 70
    32
  0
VERTEX
  5
F4
330
E6
100
AcDbEntity
  8
0
100
AcDbVertex
100
AcDb3dPolylineVertex
 10
-320.8763954812941
 20
858.0712572291854
 30
-20.22406359040244
 70
    32
  0
VERTEX
  5
F5
330
E6
100
AcDbEntity
  8
0
100
AcDbVertex
100
AcDb3dPolylineVertex
 10
-236.2311526863195
 20
897.3701774574263
 30
-96.4630295576313
 70
    32
  0
VERTEX
  5
F6
330
E6
100
AcDbEntity
  8
0
100
AcDbVertex
100
AcDb3dPolylineVertex
 10
-302.3419259445367
 20
972.5848592515074
 30
-18.86140740619165
 70
    32
  0
VERTEX
  5
F7
330
E6
100
AcDbEntity
  8
0
100
AcDbVertex
100
AcDb3dPolylineVertex
 10
-214.3267795974244
 20
1009.11690269644
 30
-61.98833947181643
 70
    32
  0
VERTEX
  5
F8
330
E6
100
AcDbEntity
  8
0
100
AcDbVertex
100
AcDb3dPolylineVertex
 10
-277.067649303504
 20
1081.158510547316
 30
-0.0000000000001935
 70
    32
  0
SEQEND
  5
F9
330
E6
100
AcDbEntity
  8
0
  0
POLYLINE
  5
FA
330
1F
100
AcDbEntity
  8
0
100
AcDb3dPolyline
 66
     1
 10
0.0
 20
0.0
 30
0.0
 70
     8
  0
VERTEX
  5
FB
330
FA
100
AcDbEntity
  8
0
100
AcDbVertex
100
AcDb3dPolylineVertex
 10
-39.329465037574
 20
35.5068483644508
 30
-19.45063779235032
 70
    32
  0
VERTEX
  5
FC
330
FA
100
AcDbEntity
  8
0
100
AcDbVertex
100
AcDb3dPolylineVertex
 10
-134.8882368245043
 20
103.4227975943763
 30
-105.7637418023174
 70
    32
  0
VERTEX
  5
FD
330
FA
100
AcDbEntity
  8
0
100
AcDbVertex
100
AcDb3dPolylineVertex
 10
-64.60374167860672
 20
149.0259070189963
 30
-205.3832134711785
 70
    32
  0
VERTEX
  5
FE
330
FA
100
AcDbEntity
  8
0
100
AcDbVertex
100
AcDb3dPolylineVertex
 10
-156.7926099133994
 20
219.4555425442962
 30
-223.1987267271846
 70
    32
  0
VERTEX
  5
FF
330
FA
100
AcDbEntity
  8
0
100
AcDbVertex
100
AcDb3dPolylineVertex
 10
-83.13821121536404
 20
267.1661411043921
 30
-310.034128165207
 70
    32
  0
VERTEX
  5
100
330
FA
100
AcDbEntity
  8
0
100
AcDbVertex
100
AcDb3dPolylineVertex
 10
-171.957175898019
 20
339.2970686052693
 30
-281.7162533541993
 70
    32
  0
VERTEX
  5
101
330
FA
100
AcDbEntity
  8
0
100
AcDbVertex
100
AcDb3dPolylineVertex
 10
-94.93287364784597
 20
388.3027619810437
 30
-348.5991399716622
 70
    32
  0
VERTEX
  5
102
330
FA
100
AcDbEntity
  8
0
100
AcDbVertex
100
AcDb3dPolylineVertex
 10
-180.3819347783632
 20
461.322587137701
 30
-293.2417701324251
 70
    32
  0
VERTEX
  5
103
330
FA
100
AcDbEntity
  8
0
100
AcDbVertex
100
AcDb3dPolylineVertex
 10
-99.9877289760525
 20
510.8109810093568
 30
-336.2740069877709
 70
    32
  0
VERTEX
  5
104
330
FA
100
AcDbEntity
  8
0
100
AcDbVertex
100
AcDb3dPolylineVertex
 10
-182.066886554432
 20
583.9073095019967
 30
-269.7007255109249
 70
    32
  0
VERTEX
  5
105
330
FA
100
AcDbEntity
  8
0
100
AcDbVertex
100
AcDb3dPolylineVertex
 10
-98.30277719998364
 20
633.066009549737
 30
-288.2544873107591
 70
    32
  0
VERTEX
  5
106
330
FA
100
AcDbEntity
  8
0
100
AcDbVertex
100
AcDb3dPolylineVertex
 10
-177.0120312262254
 20
705.4264470585624
 30
-223.0185679387627
 70
    32
  0
VERTEX
  5
107
330
FA
100
AcDbEntity
  8
0
100
AcDbVertex
100
AcDb3dPolylineVertex
 10
-89.87801831963935
 20
753.4430589625896
 30
-219.7363390378535
 70
    32
  0
VERTEX
  5
108
330
FA
100
AcDbEntity
  8
0
100
AcDbVertex
100
AcDb3dPolylineVertex
 10
-165.2173687937435
 20
824.255211167804
 30
-165.1207458650017
 70
    32
  0
VERTEX
  5
109
330
FA
100
AcDbEntity
  8
0
100
AcDbVertex
100
AcDb3dPolylineVertex
 10
-74.71345233501977
 20
870.3173406083208
 30
-145.9153202662806
 70
    32
  0
VERTEX
  5
10A
330
FA
100
AcDbEntity
  8
0
100
AcDbVertex
100
AcDb3dPolylineVertex
 10
-146.6828992569862
 20
938.7688131901257
 30
-107.9327077387054
 70
    32
  0
VERTEX
  5
10B
330
FA
100
AcDbEntity
  8
0
100
AcDbVertex
100
AcDb3dPolylineVertex
 10
-52.80907924612472
 20
982.0640658473351
 30
-81.98718909326655
 70
    32
  0
VERTEX
  5
10C
330
FA
100
AcDbEntity
  8
0
100
AcDbVertex
100
AcDb3dPolylineVertex
 10
-121.4086226159535
 20
1047.342464485934
 30
-63.37990200893734
 70
    32
  0
SEQEND
  5
10D
330
FA
100
AcDbEntity
  8
0
  0
POLYLINE
  5
10E
330
1F
100
AcDbEntity
  8
0
100
AcDb3dPolyline
 66
     1
 10
0.0
 20
0.0
 30
0.0
 70
     8
  0
VERTEX
  5
10F
330
10E
100
AcDbEntity
  8
0
100
AcDbVertex
100
AcDb3dPolylineVertex
 10
130.4409183242414
 20
21.98042993989811
 30
-1.352119759975686
 70
    32
  0
VERTEX
  5
110
330
10E
100
AcDbEntity
  8
0
100
AcDbVertex
100
AcDb3dPolylineVertex
 10
31.33324908488364
 20
83.13316995754724
 30
-119.4864129372256
 70
    32
  0
VERTEX
  5
111
330
10E
100
AcDbEntity
  8
0
100
AcDbVertex
100
AcDb3dPolylineVertex
 10
105.1666416832087
 20
135.4994885944436
 30
-176.108621077489
 70
    32
  0
VERTEX
  5
112
330
10E
100
AcDbEntity
  8
0
100
AcDbVertex
100
AcDb3dPolylineVertex
 10
9.428875995988639
 20
199.1659149074671
 30
-267.2847316917749
 70
    32
  0
VERTEX
  5
113
330
10E
100
AcDbEntity
  8
0
100
AcDbVertex
100
AcDb3dPolylineVertex
 10
86.63217214645135
 20
253.6397226798394
 30
-275.0856849923123
 70
    32
  0
VERTEX
  5
114
330
10E
100
AcDbEntity
  8
0
100
AcDbVertex
100
AcDb3dPolylineVertex
 10
-5.735689988630977
 20
319.0074409684401
 30
-338.847607023252
 70
    32
  0
VERTEX
  5
115
330
10E
100
AcDbEntity
  8
0
100
AcDbVertex
100
AcDb3dPolylineVertex
 10
74.83750971396944
 20
374.776343556491
 30
-311.8114359322253
 70
    32
  0
VERTEX
  5
116
330
10E
100
AcDbEntity
  8
0
100
AcDbVertex
100
AcDb3dPolylineVertex
 10
-14.16044886897519
 20
441.0329595008718
 30
-349.7095877606986
 70
    32
  0
VERTEX
  5
117
330
10E
100
AcDbEntity
  8
0
100
AcDbVertex
100
AcDb3dPolylineVertex
 10
69.78265438576291
 20
497.2845625848042
 30
-299.8139983250073
 70
    32
  0
VERTEX
  5
118
330
10E
100
AcDbEntity
  8
0
100
AcDbVertex
100
AcDb3dPolylineVertex
 10
-15.84540064504401
 20
563.6176818651677
 30
-315.4052227331568
 70
    32
  0
VERTEX
  5
119
330
10E
100
AcDbEntity
  8
0
100
AcDbVertex
100
AcDb3dPolylineVertex
 10
71.46760616183174
 20
619.5395911251844
 30
-252.6214965984378
 70
    32
  0
VERTEX
  5
11A
330
10E
100
AcDbEntity
  8
0
100
AcDbVertex
100
AcDb3dPolylineVertex
 10
-10.79054531683749
 20
685.1368194217334
 30
-251.4690607696683
 70
    32
  0
VERTEX
  5
11B
330
10E
100
AcDbEntity
  8
0
100
AcDbVertex
100
AcDb3dPolylineVertex
 10
79.89236504217602
 20
739.916640538037
 30
-183.7620551802963
 70
    32
  0
VERTEX
  5
11C
330
10E
100
AcDbEntity
  8
0
100
AcDbVertex
100
AcDb3dPolylineVertex
 10
1.004117115644469
 20
803.9655835309748
 30
-173.4356506992754
 70
    32
  0
VERTEX
  5
11D
330
10E
100
AcDbEntity
  8
0
100
AcDbVertex
100
AcDb3dPolylineVertex
 10
95.05693102679564
 20
856.7909221837682
 30
-106.7637984983624
 70
    32
  0
VERTEX
  5
11E
330
10E
100
AcDbEntity
  8
0
100
AcDbVertex
100
AcDb3dPolylineVertex
 10
19.53858665240177
 20
918.4791855532967
 30
-96.83954135101965
 70
    32
  0
VERTEX
  5
11F
330
10E
100
AcDbEntity
  8
0
100
AcDbVertex
100
AcDb3dPolylineVertex
 10
116.9613041156907
 20
968.5376474227824
 30
-35.15485098041546
 70
    32
  0
VERTEX
  5
120
330
10E
100
AcDbEntity
  8
0
100
AcDbVertex
100
AcDb3dPolylineVertex
 10
44.81286329343448
 20
1027.052836849105
 30
-37.21528155394333
 70
    32
  0
SEQEND
  5
121
330
10E
100
AcDbEntity
  8
0
  0
POLYLINE
  5
122
330
1F
100
AcDbEntity
  8
0
100
AcDb3dPolyline
 66
     1
 10
0.0
 20
0.0
 30
0.0
 70
     8
  0
VERTEX
  5
123
330
122
100
AcDbEntity
  8
0
100
AcDbVertex
100
AcDb3dPolylineVertex
 10
303.8444322739294
 20
21.9804299398981
 30
22.50955021087311
 70
    32
  0
VERTEX
  5
124
330
122
100
AcDbEntity
  8
0
100
AcDbVertex
100
AcDb3dPolylineVertex
 10
203.4976417934658
 20
76.36996074527086
 30
-67.61848460131317
 70
    32
  0
VERTEX
  5
125
330
122
100
AcDbEntity
  8
0
100
AcDbVertex
100
AcDb3dPolylineVertex
 10
278.5701556328967
 20
135.4994885944436
 30
-73.75114363838293
 70
    32
  0
VERTEX
  5
126
330
122
100
AcDbEntity
  8
0
100
AcDbVertex
100
AcDb3dPolylineVertex
 10
181.5932687045708
 20
192.4027056951908
 30
-177.6657570970323
 70
    32
  0
VERTEX
  5
127
330
122
100
AcDbEntity
  8
0
100
AcDbVertex
100
AcDb3dPolylineVertex
 10
260.0356860961393
 20
253.6397226798393
 30
-132.5676355301504
 70
    32
  0
VERTEX
  5
128
330
122
100
AcDbEntity
  8
0
100
AcDbVertex
100
AcDb3dPolylineVertex
 10
166.4287027199511
 20
312.2442317561637
 30
-233.2465199290922
 70
    32
  0
VERTEX
  5
129
330
122
100
AcDbEntity
  8
0
100
AcDbVertex
100
AcDb3dPolylineVertex
 10
248.2410236636574
 20
374.776343556491
 30
-158.764770823528
 70
    32
  0
VERTEX
  5
12A
330
122
100
AcDbEntity
  8
0
100
AcDbVertex
100
AcDb3dPolylineVertex
 10
158.0039438396069
 20
434.2697502885956
 30
-244.1235617742014
 70
    32
  0
VERTEX
  5
12B
330
122
100
AcDbEntity
  8
0
100
AcDbVertex
100
AcDb3dPolylineVertex
 10
243.1861683354509
 20
497.2845625848042
 30
-157.1673948776144
 70
    32
  0
VERTEX
  5
12C
330
122
100
AcDbEntity
  8
0
100
AcDbVertex
100
AcDb3dPolylineVertex
 10
156.318992063538
 20
556.8544726528913
 30
-220.0596713090684
 70
    32
  0
VERTEX
  5
12D
330
122
100
AcDbEntity
  8
0
100
AcDbVertex
100
AcDb3dPolylineVertex
 10
244.8711201115197
 20
619.5395911251844
 30
-132.6003530515079
 70
    32
  0
VERTEX
  5
12E
330
122
100
AcDbEntity
  8
0
100
AcDbVertex
100
AcDb3dPolylineVertex
 10
161.3738473917446
 20
678.3736102094573
 30
-170.8176372104018
 70
    32
  0
VERTEX
  5
12F
330
122
100
AcDbEntity
  8
0
100
AcDbVertex
100
AcDb3dPolylineVertex
 10
253.2958789918639
 20
739.916640538037
 30
-89.88849070430727
 70
    32
  0
VERTEX
  5
130
330
122
100
AcDbEntity
  8
0
100
AcDbVertex
100
AcDb3dPolylineVertex
 10
173.1685098242266
 20
797.2023743186985
 30
-106.1602481549101
 70
    32
  0
VERTEX
  5
131
330
122
100
AcDbEntity
  8
0
100
AcDbVertex
100
AcDb3dPolylineVertex
 10
268.4604449764836
 20
856.7909221837682
 30
-33.85665319511121
 70
    32
  0
VERTEX
  5
132
330
122
100
AcDbEntity
  8
0
100
AcDbVertex
100
AcDb3dPolylineVertex
 10
191.7029793609838
 20
911.7159763410205
 30
-35.8502928193018
 70
    32
  0
VERTEX
  5
133
330
122
100
AcDbEntity
  8
0
100
AcDbVertex
100
AcDb3dPolylineVertex
 10
290.3648180653785
 20
968.5376474227824
 30
30.67031411698185
 70
    32
  0
VERTEX
  5
134
330
122
100
AcDbEntity
  8
0
100
AcDbVertex
100
AcDb3dPolylineVertex
 10
216.9772560020166
 20
1020.289627636829
 30
30.34944011971454
 70
    32
  0
SEQEND
  5
135
330
122
100
AcDbEntity
  8
0
  0
POLYLINE
  5
136
330
1F
100
AcDbEntity
  8
0
100
AcDb3dPolyline
 66
     1
 10
0.0
 20
0.0
 30
0.0
 70
     8
  0
VERTEX
  5
137
330
136
100
AcDbEntity
  8
0
100
AcDbVertex
100
AcDb3dPolylineVertex
 10
476.2615243888467
 20
35.50684836445079
 30
35.77208414018546
 70
    32
  0
VERTEX
  5
138
330
136
100
AcDbEntity
  8
0
100
AcDbVertex
100
AcDb3dPolylineVertex
 10
376.9853888785988
 20
83.13316995754722
 30
6.592589888346573
 70
    32
  0
VERTEX
  5
139
330
136
100
AcDbEntity
  8
0
100
AcDbVertex
100
AcDb3dPolylineVertex
 10
450.987247747814
 20
149.0259070189963
 30
37.61507261912214
 70
    32
  0
VERTEX
  5
13A
330
136
100
AcDbEntity
  8
0
100
AcDbVertex
100
AcDb3dPolylineVertex
 10
355.0810157897038
 20
199.1659149074672
 30
-33.77047343607006
 70
    32
  0
VERTEX
  5
13B
330
136
100
AcDbEntity
  8
0
100
AcDbVertex
100
AcDb3dPolylineVertex
 10
432.4527782110565
 20
267.166141104392
 30
27.62269032264867
 70
    32
  0
VERTEX
  5
13C
330
136
100
AcDbEntity
  8
0
100
AcDbVertex
100
AcDb3dPolylineVertex
 10
339.9164498050841
 20
319.0074409684402
 30
-60.97942029855719
 70
    32
  0
VERTEX
  5
13D
330
136
100
AcDbEntity
  8
0
100
AcDbVertex
100
AcDb3dPolylineVertex
 10
420.6581157785747
 20
388.3027619810437
 30
12.01858609342534
 70
    32
  0
VERTEX
  5
13E
330
136
100
AcDbEntity
  8
0
100
AcDbVertex
100
AcDb3dPolylineVertex
 10
331.4916909247399
 20
441.0329595008719
 30
-74.33484895733378
 70
    32
  0
VERTEX
  5
13F
330
136
100
AcDbEntity
  8
0
100
AcDbVertex
100
AcDb3dPolylineVertex
 10
415.6032604503682
 20
510.810981009357
 30
-2.973591225887604
 70
    32
  0
VERTEX
  5
140
330
136
100
AcDbEntity
  8
0
100
AcDbVertex
100
AcDb3dPolylineVertex
 10
329.8067391486711
 20
563.6176818651677
 30
-73.13735767061914
 70
    32
  0
VERTEX
  5
141
330
136
100
AcDbEntity
  8
0
100
AcDbVertex
100
AcDb3dPolylineVertex
 10
417.288212226437
 20
633.066009549737
 30
-11.13019279262985
 70
    32
  0
VERTEX
  5
142
330
136
100
AcDbEntity
  8
0
100
AcDbVertex
100
AcDb3dPolylineVertex
 10
334.8615944768776
 20
685.1368194217334
 30
-56.68754469663239
 70
    32
  0
VERTEX
  5
143
330
136
100
AcDbEntity
  8
0
100
AcDbVertex
100
AcDb3dPolylineVertex
 10
425.7129711067811
 20
753.4430589625897
 30
-6.227569764141154
 70
    32
  0
VERTEX
  5
144
330
136
100
AcDbEntity
  8
0
100
AcDbVertex
100
AcDb3dPolylineVertex
 10
346.6562569093595
 20
803.9655835309749
 30
-24.28600829359267
 70
    32
  0
VERTEX
  5
145
330
136
100
AcDbEntity
  8
0
100
AcDbVertex
100
AcDb3dPolylineVertex
 10
440.8775370914009
 20
870.3173406083212
 30
17.95792670223883
 70
    32
  0
VERTEX
  5
146
330
136
100
AcDbEntity
  8
0
100
AcDbVertex
100
AcDb3dPolylineVertex
 10
365.1907264461169
 20
918.4791855532969
 30
24.76665328028092
 70
    32
  0
VERTEX
  5
147
330
136
100
AcDbEntity
  8
0
100
AcDbVertex
100
AcDb3dPolylineVertex
 10
462.7819101802959
 20
982.0640658473349
 30
67.64994544917027
 70
    32
  0
VERTEX
  5
148
330
136
100
AcDbEntity
  8
0
100
AcDbVertex
100
AcDb3dPolylineVertex
 10
390.4650030871496
 20
1027.052836849105
 30
91.16984176676914
 70
    32
  0
SEQEND
  5
149
330
136
100
AcDbEntity
  8
0
  0
POLYLINE
  5
14A
330
1F
100
AcDbEntity
  8
0
100
AcDb3dPolyline
 66
     1
 10
0.0
 20
0.0
 30
0.0
 70
     8
  0
VERTEX
  5
14B
330
14A
100
AcDbEntity
  8
0
100
AcDbVertex
100
AcDb3dPolylineVertex
 10
643.0726422463501
 20
62.55968521355618
 30
22.07319404795079
 70
    32
  0
VERTEX
  5
14C
330
14A
100
AcDbEntity
  8
0
100
AcDbVertex
100
AcDb3dPolylineVertex
 10
547.1769379176397
 20
103.4227975943763
 30
59.89935721468054
 70
    32
  0
VERTEX
  5
14D
330
14A
100
AcDbEntity
  8
0
100
AcDbVertex
100
AcDb3dPolylineVertex
 10
617.7983656053175
 20
176.0787438681018
 30
93.91588146800858
 70
    32
  0
VERTEX
  5
14E
330
14A
100
AcDbEntity
  8
0
100
AcDbVertex
100
AcDb3dPolylineVertex
 10
525.2725648287446
 20
219.4555425442962
 30
84.97244879799827
 70
    32
  0
VERTEX
  5
14F
330
14A
100
AcDbEntity
  8
0
100
AcDbVertex
100
AcDb3dPolylineVertex
 10
599.2638960685601
 20
294.2189779534975
 30
115.5879626674547
 70
    32
  0
VERTEX
  5
150
330
14A
100
AcDbEntity
  8
0
100
AcDbVertex
100
AcDb3dPolylineVertex
 10
510.1079988441252
 20
339.2970686052693
 30
81.88726364151596
 70
    32
  0
VERTEX
  5
151
330
14A
100
AcDbEntity
  8
0
100
AcDbVertex
100
AcDb3dPolylineVertex
 10
587.4692336360783
 20
415.3555988301492
 30
102.0163655576305
 70
    32
  0
VERTEX
  5
152
330
14A
100
AcDbEntity
  8
0
100
AcDbVertex
100
AcDb3dPolylineVertex
 10
501.6832399637809
 20
461.322587137701
 30
61.80539390550383
 70
    32
  0
VERTEX
  5
153
330
14A
100
AcDbEntity
  8
0
100
AcDbVertex
100
AcDb3dPolylineVertex
 10
582.4143783078717
 20
537.8638178584624
 30
68.12801804987718
 70
    32
  0
VERTEX
  5
154
330
14A
100
AcDbEntity
  8
0
100
AcDbVertex
100
AcDb3dPolylineVertex
 10
499.998288187712
 20
583.907309501997
 30
35.88843175023205
 70
    32
  0
VERTEX
  5
155
330
14A
100
AcDbEntity
  8
0
100
AcDbVertex
100
AcDb3dPolylineVertex
 10
584.0993300839406
 20
660.1188463988425
 30
28.84984805553569
 70
    32
  0
VERTEX
  5
156
330
14A
100
AcDbEntity
  8
0
100
AcDbVertex
100
AcDb3dPolylineVertex
 10
505.0531435159183
 20
705.4264470585628
 30
15.29796933597089
 70
    32
  0
VERTEX
  5
157
330
14A
100
AcDbEntity
  8
0
100
AcDbVertex
100
AcDb3dPolylineVertex
 10
592.5240889642847
 20
780.495895811695
 30
-0.8912165140526421
 70
    32
  0
VERTEX
  5
158
330
14A
100
AcDbEntity
  8
0
100
AcDbVertex
100
AcDb3dPolylineVertex
 10
516.8478059484003
 20
824.2552111678041
 30
11.19559882299054
 70
    32
  0
VERTEX
  5
159
330
14A
100
AcDbEntity
  8
0
100
AcDbVertex
100
AcDb3dPolylineVertex
 10
607.6886549489043
 20
897.3701774574264
 30
-6.168247747546669
 70
    32
  0
VERTEX
  5
15A
330
14A
100
AcDbEntity
  8
0
100
AcDbVertex
100
AcDb3dPolylineVertex
 10
535.3822754851576
 20
938.7688131901259
 30
34.74291237156129
 70
    32
  0
VERTEX
  5
15B
330
14A
100
AcDbEntity
  8
0
100
AcDbVertex
100
AcDb3dPolylineVertex
 10
629.5930280377992
 20
1009.11690269644
 30
27.94568226639479
 70
    32
  0
VERTEX
  5
15C
330
14A
100
AcDbEntity
  8
0
100
AcDbVertex
100
AcDb3dPolylineVertex
 10
560.6565521261906
 20
1047.342464485934
 30
97.1015021419533
 70
    32
  0
SEQEND
  5
15D
330
14A
100
AcDbEntity
  8
0
  0
ENDSEC
  0
SECTION
  2
OBJECTS
  0
DICTIONARY
  5
C
330
0
100
AcDbDictionary
  3
ACAD_GROUP
350
D
  3
ACAD_LAYOUT
350
1A
  3
ACAD_MATERIAL
350
43
  3
ACAD_MLEADERSTYLE
350
6B
  3
ACAD_MLINESTYLE
350
17
  3
ACAD_PLOTSETTINGS
350
19
  3
ACAD_SCALELIST
350
47
  3
ACAD_VISUALSTYLE
350
2A
  3
ACDBHEADERROUNDTRIPXREC
350
15E
  3
ACDBVARIABLEDICTIONARY
350
17F
  0
DICTIONARY
  5
186
330
8
100
AcDbDictionary
280
     1
  3
ACAD_XREC_ROUNDTRIP
360
187
  0
DICTIONARY
  5
D
102
{ACAD_REACTORS
330
C
102
}
330
C
100
AcDbDictionary
  0
DICTIONARY
  5
1A
102
{ACAD_REACTORS
330
C
102
}
330
C
100
AcDbDictionary
  0
DICTIONARY
  5
43
102
{ACAD_REACTORS
330
C
102
}
330
C
100
AcDbDictionary
  3
BYBLOCK
350
45
  3
BYLAYER
350
44
  3
GLOBAL
350
46
  0
DICTIONARY
  5
6B
102
{ACAD_REACTORS
330
C
102
}
330
C
100
AcDbDictionary
  3
STANDARD
350
6C
  0
DICTIONARY
  5
17
102
{ACAD_REACTORS
330
C
102
}
330
C
100
AcDbDictionary
  3
STANDARD
350
18
  0
DICTIONARY
  5
19
102
{ACAD_REACTORS
330
C
102
}
330
C
100
AcDbDictionary
  0
DICTIONARY
  5
47
102
{ACAD_REACTORS
330
C
102
}
330
C
100
AcDbDictionary
  3
A0
350
48
  3
A1
350
49
  3
A2
350
4A
  3
A3
350
4B
  3
A4
350
4C
  3
A5
350
4D
  3
A6
350
4E
  3
A7
350
4F
  3
A8
350
50
  3
A9
350
51
  3
B0
350
52
  3
B1
350
53
  3
B2
350
54
  3
B3
350
55
  3
B4
350
56
  3
B5
350
57
  3
B6
350
58
  3
B7
350
59
  3
B8
350
5A
  3
B9
350
5B
  3
C0
350
5C
  3
C1
350
5D
  3
C2
350
5E
  3
C3
350
5F
  3
C4
350
60
  3
C5
350
61
  3
C6
350
62
  3
C7
350
63
  3
C8
350
64
  3
C9
350
65
  3
D0
350
66
  3
D1
350
67
  3
D2
350
68
  0
DICTIONARY
  5
2A
102
{ACAD_REACTORS
330
C
102
}
330
C
100
AcDbDictionary
  3
2DWIREFRAME
350
2F
  3
BASIC
350
32
  3
BRIGHTEN
350
36
  3
COLORCHANGE
350
3A
  3
CONCEPTUAL
350
34
  3
DIM
350
35
  3
EDGECOLOROFF
350
3D
  3
FACEPATTERN
350
39
  3
FLAT
350
2B
  3
FLATWITHEDGES
350
2C
  3
GOURAUD
350
2D
  3
GOURAUDWITHEDGES
350
2E
  3
HIDDEN
350
31
  3
JITTEROFF
350
3B
  3
LINEPATTERN
350
38
  3
OVERHANGOFF
350
3C
  3
REALISTIC
350
33
  3
SHADED
350
42
  3
SHADED_WITH_EDGES
350
41
  3
SHADES_OF_GRAY
350
3E
  3
SKETCHY
350
3F
  3
THICKEN
350
37
  3
WIREFRAME
350
30
  3
X-RAY
350
40
  0
DICTIONARY
  5
15E
102
{ACAD_REACTORS
330
C
102
}
330
C
100
AcDbDictionary
  3
CEPSNID
350
168
  3
CEPSNTYPE
350
167
  3
DIMSTYLEDATA
350
17E
  3
FINGERPRINTGUID
350
169
  3
HYPERLINKBASE
350
161
  3
INSUNITS
350
166
  3
LAYOUTDICT
350
163
  3
LWETCUNION
350
165
  3
PLOTSETDICT
350
164
  3
PSVPSCALE
350
16B
  3
PUCSBASE
350
16E
  3
PUCSORGBACK
350
174
  3
PUCSORGBOTTOM
350
170
  3
PUCSORGFRONT
350
173
  3
PUCSORGLEFT
350
171
  3
PUCSORGRIGHT
350
172
  3
PUCSORGTOP
350
16F
  3
PUCSORTHOREF
350
16C
  3
PUCSORTHOVIEW
350
16D
  3
STYLESHEET
350
162
  3
TSTACKALIGN
350
15F
  3
TSTACKSIZE
350
160
  3
UCSBASE
350
177
  3
UCSORGBACK
350
17D
  3
UCSORGBOTTOM
350
179
  3
UCSORGFRONT
350
17C
  3
UCSORGLEFT
350
17A
  3
UCSORGRIGHT
350
17B
  3
UCSORGTOP
350
178
  3
UCSORTHOREF
350
175
  3
UCSORTHOVIEW
350
176
  3
VERSIONGUID
350
16A
  0
DICTIONARY
  5
17F
102
{ACAD_REACTORS
330
C
102
}
330
C
100
AcDbDictionary
  3
CANNOSCALE
350
188
  3
CMLEADERSTYLE
350
181
  3
CTABLESTYLE
350
180
  3
DIMASSOC
350
184
  3
HIDETEXT
350
185
  3
MSLTSCALE
350
189
  0
XRECORD
  5
187
102
{ACAD_REACTORS
330
186
102
}
330
186
100
AcDbXrecord
102
VTR_0.000_0.000_1.000_1.000_VISUALSTYLE
340
2F
102
VTR_0.000_0.000_1.000_1.000_GRIDDISPLAY
 70
     3
102
VTR_0.000_0.000_1.000_1.000_GRIDMAJOR
 70
     5
102
VTR_0.000_0.000_1.000_1.000_DEFAULTLIGHTING
280
     1
102
VTR_0.000_0.000_1.000_1.000_DEFAULTLIGHTINGTYPE
 70
     1
102
VTR_0.000_0.000_1.000_1.000_BRIGHTNESS
141
0.0
102
VTR_0.000_0.000_1.000_1.000_CONTRAST
142
0.0
  0
MATERIAL
  5
45
102
{ACAD_REACTORS
330
43
102
}
102
{ACAD_XDICTIONARY
360
18C
102
}
330
43
100
AcDbMaterial
  1
BYBLOCK
  0
MATERIAL
  5
44
102
{ACAD_REACTORS
330
43
102
}
102
{ACAD_XDICTIONARY
360
18A
102
}
330
43
100
AcDbMaterial
  1
BYLAYER
  0
MATERIAL
  5
46
102
{ACAD_REACTORS
330
43
102
}
102
{ACAD_XDICTIONARY
360
18E
102
}
330
43
100
AcDbMaterial
  1
GLOBAL
  0
ACAD_PROXY_OBJECT
  5
6C
102
{ACAD_REACTORS
330
6B
102
}
330
6B
100
AcDbProxyObject
 90
      499
 91
      505
 93
      610
310
40901902A4063FBFFFFFE056BD1B81E855B9FC0AD7A3703D0AD73F4214DD185B99185C9900AD7A3703D0AC73F90141901A02B5E8DC0F42B1CFC02B5E8DC0F42B1CFE5764000000000000300FC0
340
14
340
0
340
11
340
0
 94
        0
1001
ACAD_MLEADERVER
1070
     2
  0
MLINESTYLE
  5
18
102
{ACAD_REACTORS
330
17
102
}
330
17
100
AcDbMlineStyle
  2
Standard
 70
     0
  3

 62
   256
 51
90.0
 52
90.0
 71
     2
 49
0.5
 62
   256
  6
BYLAYER
 49
-0.5
 62
   256
  6
BYLAYER
  0
ACAD_PROXY_OBJECT
  5
48
102
{ACAD_REACTORS
330
47
102
}
330
47
100
AcDbProxyObject
 90
      499
 91
      503
 93
       41
310
903313A31580
  0
ACAD_PROXY_OBJECT
  5
49
102
{ACAD_REACTORS
330
47
102
}
330
47
100
AcDbProxyObject
 90
      499
 91
      503
 93
      105
310
903313A324000000000000004000
  0
ACAD_PROXY_OBJECT
  5
4A
102
{ACAD_REACTORS
330
47
102
}
330
47
100
AcDbProxyObject
 90
      499
 91
      503
 93
      105
310
903313A344000000000000104000
  0
ACAD_PROXY_OBJECT
  5
4B
102
{ACAD_REACTORS
330
47
102
}
330
47
100
AcDbProxyObject
 90
      499
 91
      503
 93
      105
310
903313A354000000000000144000
  0
ACAD_PROXY_OBJECT
  5
4C
102
{ACAD_REACTORS
330
47
102
}
330
47
100
AcDbProxyObject
 90
      499
 91
      503
 93
      105
310
903313A384000000000000204000
  0
ACAD_PROXY_OBJECT
  5
4D
102
{ACAD_REACTORS
330
47
102
}
330
47
100
AcDbProxyObject
 90
      499
 91
      503
 93
      113
310
904313A31304000000000000244000
  0
ACAD_PROXY_OBJECT
  5
4E
102
{ACAD_REACTORS
330
47
102
}
330
47
100
AcDbProxyObject
 90
      499
 91
      503
 93
      113
310
904313A31364000000000000304000
  0
ACAD_PROXY_OBJECT
  5
4F
102
{ACAD_REACTORS
330
47
102
}
330
47
100
AcDbProxyObject
 90
      499
 91
      503
 93
      113
310
904313A32304000000000000344000
  0
ACAD_PROXY_OBJECT
  5
50
102
{ACAD_REACTORS
330
47
102
}
330
47
100
AcDbProxyObject
 90
      499
 91
      503
 93
      113
310
904313A333040000000000003E4000
  0
ACAD_PROXY_OBJECT
  5
51
102
{ACAD_REACTORS
330
47
102
}
330
47
100
AcDbProxyObject
 90
      499
 91
      503
 93
      113
310
904313A34304000000000000444000
  0
ACAD_PROXY_OBJECT
  5
52
102
{ACAD_REACTORS
330
47
102
}
330
47
100
AcDbProxyObject
 90
      499
 91
      503
 93
      113
310
904313A35304000000000000494000
  0
ACAD_PROXY_OBJECT
  5
53
102
{ACAD_REACTORS
330
47
102
}
330
47
100
AcDbProxyObject
 90
      499
 91
      503
 93
      121
310
905313A3130304000000000000594000
  0
ACAD_PROXY_OBJECT
  5
54
102
{ACAD_REACTORS
330
47
102
}
330
47
100
AcDbProxyObject
 90
      499
 91
      503
 93
      105
310
903323A310000000000000010100
  0
ACAD_PROXY_OBJECT
  5
55
102
{ACAD_REACTORS
330
47
102
}
330
47
100
AcDbProxyObject
 90
      499
 91
      503
 93
      105
310
903343A310000000000000410100
  0
ACAD_PROXY_OBJECT
  5
56
102
{ACAD_REACTORS
330
47
102
}
330
47
100
AcDbProxyObject
 90
      499
 91
      503
 93
      105
310
903383A310000000000000810100
  0
ACAD_PROXY_OBJECT
  5
57
102
{ACAD_REACTORS
330
47
102
}
330
47
100
AcDbProxyObject
 90
      499
 91
      503
 93
      113
310
90431303A310000000000000910100
  0
ACAD_PROXY_OBJECT
  5
58
102
{ACAD_REACTORS
330
47
102
}
330
47
100
AcDbProxyObject
 90
      499
 91
      503
 93
      121
310
9053130303A310000000000001650100
  0
ACAD_PROXY_OBJECT
  5
59
102
{ACAD_REACTORS
330
47
102
}
330
47
100
AcDbProxyObject
 90
      499
 91
      503
 93
      257
310
90E312F31323822203D2031272D3022000000000000200FC000000000000284000
  0
ACAD_PROXY_OBJECT
  5
5A
102
{ACAD_REACTORS
330
47
102
}
330
47
100
AcDbProxyObject
 90
      499
 91
      503
 93
      249
310
90D312F363422203D2031272D3022000000000000240FC000000000000284000
  0
ACAD_PROXY_OBJECT
  5
5B
102
{ACAD_REACTORS
330
47
102
}
330
47
100
AcDbProxyObject
 90
      499
 91
      503
 93
      249
310
90D312F333222203D2031272D3022000000000000280FC000000000000284000
  0
ACAD_PROXY_OBJECT
  5
5C
102
{ACAD_REACTORS
330
47
102
}
330
47
100
AcDbProxyObject
 90
      499
 91
      503
 93
      249
310
90D312F313622203D2031272D30220000000000002C0FC000000000000284000
  0
ACAD_PROXY_OBJECT
  5
5D
102
{ACAD_REACTORS
330
47
102
}
330
47
100
AcDbProxyObject
 90
      499
 91
      503
 93
      249
310
90D332F333222203D2031272D30220000000000002E0FC000000000000284000
  0
ACAD_PROXY_OBJECT
  5
5E
102
{ACAD_REACTORS
330
47
102
}
330
47
100
AcDbProxyObject
 90
      499
 91
      503
 93
      241
310
90C312F3822203D2031272D3022000000000000300FC000000000000284000
  0
ACAD_PROXY_OBJECT
  5
5F
102
{ACAD_REACTORS
330
47
102
}
330
47
100
AcDbProxyObject
 90
      499
 91
      503
 93
      249
310
90D332F313622203D2031272D3022000000000000320FC000000000000284000
  0
ACAD_PROXY_OBJECT
  5
60
102
{ACAD_REACTORS
330
47
102
}
330
47
100
AcDbProxyObject
 90
      499
 91
      503
 93
      241
310
90C312F3422203D2031272D3022000000000000340FC000000000000284000
  0
ACAD_PROXY_OBJECT
  5
61
102
{ACAD_REACTORS
330
47
102
}
330
47
100
AcDbProxyObject
 90
      499
 91
      503
 93
      241
310
90C332F3822203D2031272D3022000000000000360FC000000000000284000
  0
ACAD_PROXY_OBJECT
  5
62
102
{ACAD_REACTORS
330
47
102
}
330
47
100
AcDbProxyObject
 90
      499
 91
      503
 93
      241
310
90C312F3222203D2031272D3022000000000000380FC000000000000284000
  0
ACAD_PROXY_OBJECT
  5
63
102
{ACAD_REACTORS
330
47
102
}
330
47
100
AcDbProxyObject
 90
      499
 91
      503
 93
      241
310
90C332F3422203D2031272D30220000000000003A0FC000000000000284000
  0
ACAD_PROXY_OBJECT
  5
64
102
{ACAD_REACTORS
330
47
102
}
330
47
100
AcDbProxyObject
 90
      499
 91
      503
 93
      161
310
90A3122203D2031272D30224000000000000284000
  0
ACAD_PROXY_OBJECT
  5
65
102
{ACAD_REACTORS
330
47
102
}
330
47
100
AcDbProxyObject
 90
      499
 91
      503
 93
      257
310
90E312D312F3222203D2031272D30220000000000003E0FC000000000000284000
  0
ACAD_PROXY_OBJECT
  5
66
102
{ACAD_REACTORS
330
47
102
}
330
47
100
AcDbProxyObject
 90
      499
 91
      503
 93
      225
310
90A3322203D2031272D302200000000000002100000000000000284000
  0
ACAD_PROXY_OBJECT
  5
67
102
{ACAD_REACTORS
330
47
102
}
330
47
100
AcDbProxyObject
 90
      499
 91
      503
 93
      225
310
90A3622203D2031272D302200000000000006100000000000000284000
  0
ACAD_PROXY_OBJECT
  5
68
102
{ACAD_REACTORS
330
47
102
}
330
47
100
AcDbProxyObject
 90
      499
 91
      503
 93
      249
310
90D31272D3022203D2031272D30220000000000000A100000000000000284000
  0
ACAD_PROXY_OBJECT
  5
2F
102
{ACAD_REACTORS
330
2A
102
}
330
2A
100
AcDbProxyObject
 90
      499
 91
      501
 93
      436
310
42CC9915DA5C99599C985B595049028333333333333E33F0000000000000F90107901411070040501600405405064090741402480A0340
1001
ACAD
1000
AcDbSavedByObjectVersion
1070
     0
  0
ACAD_PROXY_OBJECT
  5
32
102
{ACAD_REACTORS
330
2A
102
}
330
2A
100
AcDbProxyObject
 90
      499
 91
      501
 93
      388
310
4150985CDA58D07406404333333333333E33F0000000000000F90107A41107004050150841D405064090741402480A0350
1001
ACAD
1000
AcDbSavedByObjectVersion
1070
     0
  0
ACAD_PROXY_OBJECT
  5
36
102
{ACAD_REACTORS
330
2A
102
}
330
2A
100
AcDbProxyObject
 90
      499
 91
      501
 93
      428
310
42109C9A59DA1D195B90C409028333333333333E33F0000000000000F9010790141107004050150841D405064090741402480A029950
1001
ACAD
1000
AcDbSavedByObjectVersion
1070
     0
  0
ACAD_PROXY_OBJECT
  5
3A
102
{ACAD_REACTORS
330
2A
102
}
330
2A
100
AcDbProxyObject
 90
      499
 91
      501
 93
      452
310
42D0DBDB1BDC90DA185B99D95104090240C333333333333E33F0000000000000F90108901411070040501508421405064090741402480A0350
1001
ACAD
1000
AcDbSavedByObjectVersion
1070
     0
  0
ACAD_PROXY_OBJECT
  5
34
102
{ACAD_REACTORS
330
2A
102
}
330
2A
100
AcDbProxyObject
 90
      499
 91
      501
 93
      500
310
4290DBDB98D95C1D1D585B10940D028333333333333E33F0000000000000F90107902409070040501000000000018199010841D405064090740C02480A0340
1001
ACAD
1000
AcDbSavedByObjectVersion
1070
     0
  0
ACAD_PROXY_OBJECT
  5
35
102
{ACAD_REACTORS
330
2A
102
}
330
2A
100
AcDbProxyObject
 90
      499
 91
      501
 93
      412
310
40D11A5B50B409028333333333333E33F0000000000000F9010790141107004050150841D405064090741402480A02677FFFFFD0
1001
ACAD
1000
AcDbSavedByObjectVersion
1070
     0
  0
ACAD_PROXY_OBJECT
  5
3D
102
{ACAD_REACTORS
330
2A
102
}
330
2A
100
AcDbProxyObject
 90
      499
 91
      501
 93
      452
310
43115919D950DBDB1BDC93D999916409028333333333333E33F0000000000000F9010790141107004050150841D405064090741402480A0350
1001
ACAD
1000
AcDbSavedByObjectVersion
1070
     0
  0
ACAD_PROXY_OBJECT
  5
39
102
{ACAD_REACTORS
330
2A
102
}
330
2A
100
AcDbProxyObject
 90
      499
 91
      501
 93
      444
310
42D19858D95C185D1D195C9B90F409028333333333333E33F0000000000000F9010790141107004050150841D405064090741402480A0350
1001
ACAD
1000
AcDbSavedByObjectVersion
1070
     0
  0
ACAD_PROXY_OBJECT
  5
2B
102
{ACAD_REACTORS
330
2A
102
}
330
2A
100
AcDbProxyObject
 90
      499
 91
      501
 93
      380
310
41119B185D240901404333333333333E33F0000000000000F9010740A907004050150841D405064090741402480A1B50
1001
ACAD
1000
AcDbSavedByObjectVersion
1070
     0
  0
ACAD_PROXY_OBJECT
  5
2C
102
{ACAD_REACTORS
330
2A
102
}
330
2A
100
AcDbProxyObject
 90
      499
 91
      501
 93
      468
310
43519B185D15DA5D1A115919D95CD0140901404333333333333E33F0000000000000F90107409019070040501600405405064090741402480A1B50
1001
ACAD
1000
AcDbSavedByObjectVersion
1070
     0
  0
ACAD_PROXY_OBJECT
  5
2D
102
{ACAD_REACTORS
330
2A
102
}
330
2A
100
AcDbProxyObject
 90
      499
 91
      501
 93
      404
310
41D1DBDD5C985D5910240902404333333333333E33F0000000000000F9010740A9070040501641D405064090741402480A1B50
1001
ACAD
1000
AcDbSavedByObjectVersion
1070
     0
  0
ACAD_PROXY_OBJECT
  5
2E
102
{ACAD_REACTORS
330
2A
102
}
330
2A
100
AcDbProxyObject
 90
      499
 91
      501
 93
      492
310
4411DBDD5C985D5915DA5D1A115919D95CD0340902404333333333333E33F0000000000000F90107409019070040501600405405064090741402480A1B50
1001
ACAD
1000
AcDbSavedByObjectVersion
1070
     0
  0
ACAD_PROXY_OBJECT
  5
31
102
{ACAD_REACTORS
330
2A
102
}
330
2A
100
AcDbProxyObject
 90
      499
 91
      501
 93
      476
310
41921A5919195B90640502408333333333333E33F0000000000000F901079024090700405020000000000001110200405405064090740C02480A0340
1001
ACAD
1000
AcDbSavedByObjectVersion
1070
     0
  0
ACAD_PROXY_OBJECT
  5
3B
102
{ACAD_REACTORS
330
2A
102
}
330
2A
100
AcDbProxyObject
 90
      499
 91
      501
 93
      428
310
42529A5D1D195C93D999914409028333333333333E33F0000000000000F9010790141107004050150A41D405064090741402480A0350
1001
ACAD
1000
AcDbSavedByObjectVersion
1070
     0
  0
ACAD_PROXY_OBJECT
  5
38
102
{ACAD_REACTORS
330
2A
102
}
330
2A
100
AcDbProxyObject
 90
      499
 91
      501
 93
      444
310
42D31A5B995C185D1D195C9B90E409028333333333333E33F0000000000000F9010790141107004050750841D405064090741402483A0350
1001
ACAD
1000
AcDbSavedByObjectVersion
1070
     0
  0
ACAD_PROXY_OBJECT
  5
3C
102
{ACAD_REACTORS
330
2A
102
}
330
2A
100
AcDbProxyObject
 90
      499
 91
      501
 93
      444
310
42D3DD995C9A185B99D3D999915409028333333333333E33F0000000000000F9010790141107004050150941D405064090741402480A0350
1001
ACAD
1000
AcDbSavedByObjectVersion
1070
     0
  0
ACAD_PROXY_OBJECT
  5
33
102
{ACAD_REACTORS
330
2A
102
}
330
2A
100
AcDbProxyObject
 90
      499
 91
      501
 93
      428
310
425499585B1A5CDD1A58D08409038333333333333E33F0000000000000F9010740A907004050150800405405064090740C02480A1B40
1001
ACAD
1000
AcDbSavedByObjectVersion
1070
     0
  0
ACAD_PROXY_OBJECT
  5
42
102
{ACAD_REACTORS
330
2A
102
}
330
2A
100
AcDbProxyObject
 90
      499
 91
      501
 93
      420
310
4194DA1859195911B40902404333333333333E33F0000000000000F9010740A41107004050150800405405064090840C02480A0B40
1001
ACAD
1000
AcDbSavedByObjectVersion
1070
     0
  0
ACAD_PROXY_OBJECT
  5
41
102
{ACAD_REACTORS
330
2A
102
}
330
2A
100
AcDbProxyObject
 90
      499
 91
      501
 93
      516
310
4454DA18591959081DDA5D1A08195919D95CD1A40902404333333333333E33F0000000000000F901074090142907004050250800405405064090740C02480A0B40
1001
ACAD
1000
AcDbSavedByObjectVersion
1070
     0
  0
ACAD_PROXY_OBJECT
  5
3E
102
{ACAD_REACTORS
330
2A
102
}
330
2A
100
AcDbProxyObject
 90
      499
 91
      501
 93
      532
310
4394DA1859195CC81BD98811DC985E5174090240C333333333333E33F0000000000000F901079024090741D01000000000000111010841D405064090740C02480A0340
1001
ACAD
1000
AcDbSavedByObjectVersion
1070
     0
  0
ACAD_PROXY_OBJECT
  5
3F
102
{ACAD_REACTORS
330
2A
102
}
330
2A
100
AcDbProxyObject
 90
      499
 91
      501
 93
      476
310
41D4DAD95D18DA1E51840502408333333333333E33F0000000000000F901079024090741D01000000000000111010B41D405064090741802480A0340
1001
ACAD
1000
AcDbSavedByObjectVersion
1070
     0
  0
ACAD_PROXY_OBJECT
  5
37
102
{ACAD_REACTORS
330
2A
102
}
330
2A
100
AcDbProxyObject
 90
      499
 91
      501
 93
      412
310
41D51A1A58DAD95B90D409028333333333333E33F0000000000000F9010790141107004050150C41D405064090741402480A0350
1001
ACAD
1000
AcDbSavedByObjectVersion
1070
     0
  0
ACAD_PROXY_OBJECT
  5
30
102
{ACAD_REACTORS
330
2A
102
}
330
2A
100
AcDbProxyObject
 90
      499
 91
      501
 93
      420
310
4255DA5C99599C985B595059028333333333333E33F0000000000000F90107901411070040501600405405064090740C02480A0340
1001
ACAD
1000
AcDbSavedByObjectVersion
1070
     0
  0
ACAD_PROXY_OBJECT
  5
40
102
{ACAD_REACTORS
330
2A
102
}
330
2A
100
AcDbProxyObject
 90
      499
 91
      501
 93
      404
310
41560B54985E51940902404000000000000E03F0000000000000F9010740501907004050150841D405064090740C02480A1B40
1001
ACAD
1000
AcDbSavedByObjectVersion
1070
     0
  0
XRECORD
  5
168
102
{ACAD_REACTORS
330
15E
102
}
330
15E
100
AcDbXrecord
340
0
  0
XRECORD
  5
167
102
{ACAD_REACTORS
330
15E
102
}
330
15E
100
AcDbXrecord
 90
        0
  0
XRECORD
  5
17E
102
{ACAD_REACTORS
330
15E
102
}
330
15E
100
AcDbXrecord
1000
DSTYLE
1002
{
1070
   279
 70
     2
1070
   340
340
11
1002
}
  0
XRECORD
  5
169
102
{ACAD_REACTORS
330
15E
102
}
330
15E
100
AcDbXrecord
  1
{b5536299-d246-4dc1-b268-516a58f0be66}
  0
XRECORD
  5
161
102
{ACAD_REACTORS
330
15E
102
}
330
15E
100
AcDbXrecord
  1

  0
XRECORD
  5
166
102
{ACAD_REACTORS
330
15E
102
}
330
15E
100
AcDbXrecord
 90
        4
  0
XRECORD
  5
163
102
{ACAD_REACTORS
330
15E
102
}
330
15E
100
AcDbXrecord
340
1A
  0
XRECORD
  5
165
102
{ACAD_REACTORS
330
15E
102
}
330
15E
100
AcDbXrecord
 90
    10781
  0
XRECORD
  5
164
102
{ACAD_REACTORS
330
15E
102
}
330
15E
100
AcDbXrecord
340
19
  0
XRECORD
  5
16B
102
{ACAD_REACTORS
330
15E
102
}
330
15E
100
AcDbXrecord
 40
0.0
  0
XRECORD
  5
16E
102
{ACAD_REACTORS
330
15E
102
}
330
15E
100
AcDbXrecord
340
0
  0
XRECORD
  5
174
102
{ACAD_REACTORS
330
15E
102
}
330
15E
100
AcDbXrecord
 10
0.0
 20
0.0
 30
0.0
  0
XRECORD
  5
170
102
{ACAD_REACTORS
330
15E
102
}
330
15E
100
AcDbXrecord
 10
0.0
 20
0.0
 30
0.0
  0
XRECORD
  5
173
102
{ACAD_REACTORS
330
15E
102
}
330
15E
100
AcDbXrecord
 10
0.0
 20
0.0
 30
0.0
  0
XRECORD
  5
171
102
{ACAD_REACTORS
330
15E
102
}
330
15E
100
AcDbXrecord
 10
0.0
 20
0.0
 30
0.0
  0
XRECORD
  5
172
102
{ACAD_REACTORS
330
15E
102
}
330
15E
100
AcDbXrecord
 10
0.0
 20
0.0
 30
0.0
  0
XRECORD
  5
16F
102
{ACAD_REACTORS
330
15E
102
}
330
15E
100
AcDbXrecord
 10
0.0
 20
0.0
 30
0.0
  0
XRECORD
  5
16C
102
{ACAD_REACTORS
330
15E
102
}
330
15E
100
AcDbXrecord
340
0
  0
XRECORD
  5
16D
102
{ACAD_REACTORS
330
15E
102
}
330
15E
100
AcDbXrecord
 70
     0
  0
XRECORD
  5
162
102
{ACAD_REACTORS
330
15E
102
}
330
15E
100
AcDbXrecord
  1

  0
XRECORD
  5
15F
102
{ACAD_REACTORS
330
15E
102
}
330
15E
100
AcDbXrecord
 90
        1
  0
XRECORD
  5
160
102
{ACAD_REACTORS
330
15E
102
}
330
15E
100
AcDbXrecord
 90
       70
  0
XRECORD
  5
177
102
{ACAD_REACTORS
330
15E
102
}
330
15E
100
AcDbXrecord
340
0
  0
XRECORD
  5
17D
102
{ACAD_REACTORS
330
15E
102
}
330
15E
100
AcDbXrecord
 10
0.0
 20
0.0
 30
0.0
  0
XRECORD
  5
179
102
{ACAD_REACTORS
330
15E
102
}
330
15E
100
AcDbXrecord
 10
0.0
 20
0.0
 30
0.0
  0
XRECORD
  5
17C
102
{ACAD_REACTORS
330
15E
102
}
330
15E
100
AcDbXrecord
 10
0.0
 20
0.0
 30
0.0
  0
XRECORD
  5
17A
102
{ACAD_REACTORS
330
15E
102
}
330
15E
100
AcDbXrecord
 10
0.0
 20
0.0
 30
0.0
  0
XRECORD
  5
17B
102
{ACAD_REACTORS
330
15E
102
}
330
15E
100
AcDbXrecord
 10
0.0
 20
0.0
 30
0.0
  0
XRECORD
  5
178
102
{ACAD_REACTORS
330
15E
102
}
330
15E
100
AcDbXrecord
 10
0.0
 20
0.0
 30
0.0
  0
XRECORD
  5
175
102
{ACAD_REACTORS
330
15E
102
}
330
15E
100
AcDbXrecord
340
0
  0
XRECORD
  5
176
102
{ACAD_REACTORS
330
15E
102
}
330
15E
100
AcDbXrecord
 70
     0
  0
XRECORD
  5
16A
102
{ACAD_REACTORS
330
15E
102
}
330
15E
100
AcDbXrecord
  1
{FAEB1C32-E019-11D5-929B-00C0DF256EC4}
  0
DICTIONARYVAR
  5
188
102
{ACAD_REACTORS
330
17F
102
}
330
17F
100
DictionaryVariables
280
     0
  1
1:1
  0
DICTIONARYVAR
  5
181
102
{ACAD_REACTORS
330
17F
102
}
330
17F
100
DictionaryVariables
280
     0
  1
Standard
  0
DICTIONARYVAR
  5
180
102
{ACAD_REACTORS
330
17F
102
}
330
17F
100
DictionaryVariables
280
     0
  1
Standard
  0
DICTIONARYVAR
  5
184
102
{ACAD_REACTORS
330
17F
102
}
330
17F
100
DictionaryVariables
280
     0
  1
2
  0
DICTIONARYVAR
  5
185
102
{ACAD_REACTORS
330
17F
102
}
330
17F
100
DictionaryVariables
280
     0
  1
1
  0
DICTIONARYVAR
  5
189
102
{ACAD_REACTORS
330
17F
102
}
330
17F
100
DictionaryVariables
280
     0
  1
1
  0
DICTIONARY
  5
18C
330
45
100
AcDbDictionary
280
     1
  3
ACAD_XREC_ROUNDTRIP
360
18D
  0
DICTIONARY
  5
18A
330
44
100
AcDbDictionary
280
     1
  3
ACAD_XREC_ROUNDTRIP
360
18B
  0
DICTIONARY
  5
18E
330
46
100
AcDbDictionary
280
     1
  3
ACAD_XREC_ROUNDTRIP
360
18F
  0
XRECORD
  5
18D
102
{ACAD_REACTORS
330
18C
102
}
330
18C
100
AcDbXrecord
102
MATERIAL
148
0.0
149
0.0
149
0.0
 93
        0
 94
      127
282
     0
 72
     1
 77
     1
171
     1
175
     1
179
     1
273
     0
  0
XRECORD
  5
18B
102
{ACAD_REACTORS
330
18A
102
}
330
18A
100
AcDbXrecord
102
MATERIAL
148
0.0
149
0.0
149
0.0
 93
        0
 94
      127
282
     0
 72
     1
 77
     1
171
     1
175
     1
179
     1
273
     0
  0
XRECORD
  5
18F
102
{ACAD_REACTORS
330
18E
102
}
330
18E
100
AcDbXrecord
102
MATERIAL
148
0.0
149
0.0
149
0.0
 93
        0
 94
      127
282
     0
 72
     1
 77
     1
171
     1
175
     1
179
     1
273
     0
  0
ENDSEC
  0
EOF
